<?xml version="1.0" encoding="utf-8"?><svg xmlns="http://www.w3.org/2000/svg" xmlns:xlink="http://www.w3.org/1999/xlink"><defs><svg fill="none" viewBox="0 0 19 11" id="applicationSwitcherArrow" xmlns="http://www.w3.org/2000/svg"><path d="M17.706 8.97c.63.681.184 1.846-.707 1.846H1.002c-.89 0-1.337-1.165-.707-1.846L8.293.317a.947.947 0 0 1 1.415 0l7.998 8.653z" fill="#F9F9F9"/></svg><svg fill="none" viewBox="0 0 32 32" id="applicationSwitcherClose" xmlns="http://www.w3.org/2000/svg"><circle cx="16" cy="16" r="16" fill="#333" opacity=".07"/><g stroke="#111" stroke-width="2"><path d="M12.007 11.973l8.132 8.132M11.993 20.093l8.131-8.132"/></g></svg><svg fill="none" viewBox="0 0 24 24" id="applicationSwitcherDesktopClose" xmlns="http://www.w3.org/2000/svg"><rect opacity=".07" width="24" height="24" rx="2" fill="#333"/><path stroke="#7E7E7E" stroke-width="2" d="M8.007 7.973l8.132 8.132M7.993 16.093l8.132-8.132"/></svg><svg fill="none" viewBox="0 0 44 33" id="placeholderFist" xmlns="http://www.w3.org/2000/svg"><path d="M27.772 0L0 13.121l4.312 19.752h5.656L8.995 18.73l.88-.278 3.385 14.42h5.889l-.232-17.202.88-.278 2.968 17.48h6.26l1.437-20.818.88-.232 1.53 21.05h8.253L44 3.94 27.772 0z" fill="#111"/></svg><svg fill="none" viewBox="0 0 9 10" id="platform_macintosh" xmlns="http://www.w3.org/2000/svg"><path d="M8.83 7.793c-.147.35-.32.671-.52.967-.272.403-.495.682-.667.837-.267.254-.553.384-.859.392-.22 0-.485-.065-.793-.197a2.207 2.207 0 0 0-.854-.195c-.272 0-.565.065-.878.195-.313.132-.566.2-.758.207-.294.013-.586-.12-.879-.402-.186-.169-.419-.458-.699-.867a6.083 6.083 0 0 1-.738-1.521 5.772 5.772 0 0 1-.31-1.814c0-.67.14-1.248.42-1.732.22-.39.512-.696.879-.921.366-.225.761-.34 1.187-.348.234 0 .54.075.919.222.379.147.622.222.729.222.08 0 .35-.088.808-.262.433-.161.799-.228 1.097-.202.812.068 1.422.4 1.827.997-.726.456-1.085 1.094-1.078 1.913.007.638.23 1.17.669 1.59.199.196.42.348.668.455-.054.162-.11.316-.17.464zM6.967.201c0 .5-.176.967-.527 1.399-.424.513-.937.81-1.493.763a1.593 1.593 0 0 1-.011-.189c0-.48.201-.994.56-1.414.178-.213.405-.39.681-.53.275-.14.535-.217.78-.23.007.067.01.135.01.2z" fill="#7E7E7E"/></svg><svg fill="none" viewBox="0 0 7 10" id="platform_phone" xmlns="http://www.w3.org/2000/svg"><path d="M2.5 8.125a.624.624 0 1 0 1.249.001.624.624 0 0 0-1.249 0zM0 .938v8.125C0 9.58.42 10 .938 10h4.375c.517 0 .937-.42.937-.937V.938A.938.938 0 0 0 5.312 0H.938A.938.938 0 0 0 0 .938zm.938 8.007v-7.89c0-.065.052-.117.117-.117h4.14c.065 0 .117.052.117.117v7.89a.118.118 0 0 1-.117.118h-4.14a.118.118 0 0 1-.117-.118z" fill="#7E7E7E"/></svg><svg fill="none" viewBox="0 0 11 10" id="platform_switch" xmlns="http://www.w3.org/2000/svg"><path d="M3.015.033a2.584 2.584 0 0 0-2.05 1.884c-.09.35-.097.555-.086 3.27.006 2.492.008 2.55.05 2.742.23 1.038.966 1.777 2.014 2.021.137.031.31.038 1.43.044 1.16.008 1.28.006 1.311-.025.031-.031.033-.43.033-4.961 0-3.358-.006-4.94-.02-4.97C5.676.003 5.64 0 4.427.003c-.985.002-1.281.008-1.412.03zM4.89 5.002v4.195l-.842-.01c-.777-.009-.86-.013-1.015-.052a1.756 1.756 0 0 1-1.3-1.355c-.046-.209-.046-5.36-.002-5.565A1.778 1.778 0 0 1 2.802.933c.273-.11.4-.122 1.286-.124l.801-.002v4.195z" fill="#7E7E7E"/><path d="M3.193 2.074c-.13.025-.329.124-.434.217-.218.188-.325.456-.309.77a.651.651 0 0 0 .085.34c.097.2.244.348.445.447.139.068.174.077.354.083.164.006.222 0 .332-.037.449-.152.72-.588.643-1.036a.951.951 0 0 0-1.116-.784zM6.726.015c-.009.006-.015 2.25-.015 4.987 0 4.516.002 4.974.033 4.986.056.02 1.663.013 1.862-.008a2.585 2.585 0 0 0 2.14-1.729c.131-.39.127-.286.127-3.261 0-2.375-.004-2.729-.033-2.88A2.57 2.57 0 0 0 8.732.03c-.145-.025-.369-.03-1.09-.03-.496 0-.91.005-.916.014zm2.21 4.51c.324.084.589.33.697.645.068.195.066.48-.002.659a1.022 1.022 0 0 1-.694.641 1.02 1.02 0 0 1-1.22-.691 1.187 1.187 0 0 1 .009-.584 1.005 1.005 0 0 1 1.21-.67z" fill="#7E7E7E"/></svg><svg fill="none" viewBox="0 0 10 10" id="platform_windows" xmlns="http://www.w3.org/2000/svg"><path d="M0 1.416L4.087.86l.002 3.929-4.084.023L0 1.416zm4.085 3.827l.003 3.933-4.085-.56V5.218l4.082.026zM4.58.79L9.998 0v4.741l-5.418.042V.79zM10 5.279L9.998 10 4.58 9.238l-.008-3.966L10 5.28z" fill="#7E7E7E"/></svg><svg fill="none" viewBox="0 0 99 32" id="riotGamesFull" xmlns="http://www.w3.org/2000/svg"><path d="M16 32c8.837 0 16-7.163 16-16S24.837 0 16 0 0 7.163 0 16s7.163 16 16 16z" fill="#333"/><path d="M17.511 7.343l-10.649 5.03 1.654 7.574h2.168l-.373-5.422.338-.107 1.298 5.53h2.257l-.088-6.596.337-.107 1.138 6.702h2.4l.551-7.982.338-.089.587 8.071h3.164l1.102-11.093-6.222-1.511zM15.698 23.058l-.8-2.026 7.59.373-.32 3.253-6.47-1.6z" fill="#F9F9F9"/><g clip-path="url(#iclip0)" fill="#333"><path d="M95.707 28.573l-5.2-.907.027-.737 4.956-.198-.137-1.388H88.82l-.354 3.456 5.282.963.027.652-5.5.227-.136 1.388h7.842l-.273-3.457zm-50.643-.539l-.081 1.247 1.933.056-.027 1.275-4.03-.113.163-3.655 5.555-.141-.082-1.389h-7.188l-.654 6.687h8.169l-.218-4.023-3.54.056zm34.66 2.465l-.026-1.105 3.757-.085.027-1.247-3.812-.113-.027-1.133 5.037-.113.055-1.389h-6.943l-.218 6.687h7.27l-.055-1.389-5.064-.113zM74.061 32l-.626-6.658h-1.851l-2.669 3.23-2.64-3.23h-1.852L63.769 32h2.179l.19-4.051 2.777 2.776 2.805-2.776.19 4.051h2.151zM64.94.865h-4.329l-.408 20.653h5.255L64.94.865zM82.61.865H69.08l-.517 20.653h15.002L82.61.865zM78.419 17.04l-4.792.17-.164-12.153 5.01.17-.054 11.813zM98.811 5.398l-.49-4.533H84.98l.109 4.023 4.274.17.436 16.46h5.255l-1.58-16.319 5.337.199zM52.116 21.518h5.69l-3.702-9.264 2.968-1.672L55.029.865H40.49L40 5.34l3.267-.113-1.579 16.29h5.092l.136-5.185 3.676-2.096 1.524 7.28zm-4.9-16.432l4.192-.142.49 4.108-4.819 2.38.136-6.346zM58.515 32h2.205l-1.742-6.686h-5.174l-1.742 6.687h2.205l.354-1.672 3.567.057.327 1.615zm-3.622-3.003l.436-2.181 2.124-.113.435 2.181-2.995.113z"/></g><defs><clipPath id="iclip0"><path fill="#fff" transform="translate(40 .865)" d="M0 0h58.811v31.135H0z"/></clipPath></defs></svg></defs></svg>