<?xml version="1.0" encoding="utf-8"?><svg xmlns="http://www.w3.org/2000/svg" xmlns:xlink="http://www.w3.org/1999/xlink"><defs><svg fill="none" viewBox="0 0 32 32" id="burgerNav" xmlns="http://www.w3.org/2000/svg"><circle opacity=".07" cx="16" cy="16" r="16" fill="#F9F9F9"/><path fill="#C7C7C7" d="M22 10v2H10v-2zM22 15v2H10v-2zM22 20v2H10v-2z"/></svg><svg fill="none" viewBox="0 0 32 32" id="burgerNavClose" xmlns="http://www.w3.org/2000/svg"><circle opacity=".07" cx="16" cy="16" r="16" fill="#F9F9F9"/><g stroke="#C7C7C7" stroke-width="2"><path d="M12.007 11.973l8.132 8.132M11.993 20.093l8.131-8.132"/></g></svg><svg fill="none" viewBox="0 0 32 32" id="logo-riot-fist" xmlns="http://www.w3.org/2000/svg"><path d="M16 32c8.837 0 16-7.163 16-16S24.837 0 16 0 0 7.163 0 16s7.163 16 16 16z" fill="#F9F9F9"/><g fill="#111"><path d="M17.511 7.343l-10.649 5.03 1.654 7.574h2.168l-.373-5.422.338-.107 1.298 5.529h2.258l-.09-6.596.338-.106 1.138 6.702h2.4l.551-7.982.338-.09.587 8.072h3.164l1.102-11.093-6.222-1.511zM15.698 23.058l-.8-2.027 7.591.374-.32 3.253-6.471-1.6z"/></g></svg><svg fill="none" viewBox="0 0 8 5" id="mainMenuDownHover" xmlns="http://www.w3.org/2000/svg"><path d="M.707 1.707l2.586 2.586a1 1 0 0 0 1.414 0l2.586-2.586C7.923 1.077 7.477 0 6.586 0H1.414C.524 0 .077 1.077.707 1.707z" fill="#fff"/></svg><svg fill="none" viewBox="0 0 8 5" id="mainMenuDownNonHover" xmlns="http://www.w3.org/2000/svg"><path d="M.707 1.707l2.586 2.586a1 1 0 0 0 1.414 0l2.586-2.586C7.923 1.077 7.477 0 6.586 0H1.414C.524 0 .077 1.077.707 1.707z" fill="#7E7E7E"/></svg><svg fill="none" viewBox="0 0 8 5" id="mainNavArrowDown" xmlns="http://www.w3.org/2000/svg"><path d="M.707 1.707l2.586 2.586a1 1 0 0 0 1.414 0l2.586-2.586C7.923 1.077 7.477 0 6.586 0H1.414C.524 0 .077 1.077.707 1.707z" fill="#7E7E7E"/></svg><svg fill="none" viewBox="0 0 8 5" id="mainNavArrowDownHover" xmlns="http://www.w3.org/2000/svg"><path d="M.707 1.707l2.586 2.586a1 1 0 0 0 1.414 0l2.586-2.586C7.923 1.077 7.477 0 6.586 0H1.414C.524 0 .077 1.077.707 1.707z" fill="#fff"/></svg><svg fill="none" viewBox="0 0 8 8" id="mainNavLinkOut" xmlns="http://www.w3.org/2000/svg"><path d="M7 2.023v3.985h1V0H2v.996h4L0 7.004V8h1l6-5.977z" fill="#7E7E7E"/></svg><svg fill="none" viewBox="0 0 8 8" id="mainNavLinkOutWhite" xmlns="http://www.w3.org/2000/svg"><path d="M7 2.023v3.985h1V0H2v.996h4L0 7.004V8h1l6-5.977z" fill="#FFF"/></svg><svg fill="none" viewBox="0 0 24 24" id="serviceStatus-error" xmlns="http://www.w3.org/2000/svg"><rect x="12" y=".75" width="15.865" height="15.955" rx="2" transform="rotate(45 12 .75)" fill="#D950E5"/><path d="M12.965 12.948h-1.913L10.824 8h2.37l-.229 4.948zm-.957.59c.168 0 .325.033.473.1a1.25 1.25 0 0 1 .667.656 1.135 1.135 0 0 1 0 .943c-.065.15-.154.28-.268.393a1.33 1.33 0 0 1-.399.269 1.181 1.181 0 0 1-.957 0 1.31 1.31 0 0 1-.672-.662 1.135 1.135 0 0 1 0-.943c.069-.15.16-.28.274-.392.114-.112.247-.2.399-.264.151-.067.313-.1.483-.1z" fill="#111"/></svg><svg fill="none" viewBox="0 0 24 24" id="serviceStatus-error-hover" xmlns="http://www.w3.org/2000/svg"><rect x="12" y=".75" width="15.865" height="15.955" rx="2" transform="rotate(45 12 .75)" fill="#800F8A"/><path d="M12.965 12.948h-1.913L10.824 8h2.37l-.229 4.948zm-.957.59c.168 0 .325.033.473.1a1.25 1.25 0 0 1 .667.656 1.135 1.135 0 0 1 0 .943c-.065.15-.154.28-.268.393a1.33 1.33 0 0 1-.399.269 1.181 1.181 0 0 1-.957 0 1.31 1.31 0 0 1-.672-.662 1.135 1.135 0 0 1 0-.943c.069-.15.16-.28.274-.392.114-.112.247-.2.399-.264.151-.067.313-.1.483-.1z" fill="#111"/></svg><svg fill="none" viewBox="0 0 24 24" id="serviceStatus-info" xmlns="http://www.w3.org/2000/svg"><rect x="12" y=".75" width="15.865" height="15.955" rx="2" transform="rotate(45 12 .75)" fill="#E8E8E8"/><path d="M12.965 12.948h-1.913L10.824 8h2.37l-.229 4.948zm-.957.59c.168 0 .325.033.473.1a1.25 1.25 0 0 1 .667.656 1.135 1.135 0 0 1 0 .943c-.065.15-.154.28-.268.393a1.33 1.33 0 0 1-.399.269 1.181 1.181 0 0 1-.957 0 1.31 1.31 0 0 1-.672-.662 1.135 1.135 0 0 1 0-.943c.069-.15.16-.28.274-.392.114-.112.247-.2.399-.264.151-.067.313-.1.483-.1z" fill="#111"/></svg><svg fill="none" viewBox="0 0 24 24" id="serviceStatus-info-hover" xmlns="http://www.w3.org/2000/svg"><rect x="12" y=".75" width="15.865" height="15.955" rx="2" transform="rotate(45 12 .75)" fill="#E8E8E8"/><path d="M12.965 12.948h-1.913L10.824 8h2.37l-.229 4.948zm-.957.59c.168 0 .325.033.473.1a1.25 1.25 0 0 1 .667.656 1.135 1.135 0 0 1 0 .943c-.065.15-.154.28-.268.393a1.33 1.33 0 0 1-.399.269 1.181 1.181 0 0 1-.957 0 1.31 1.31 0 0 1-.672-.662 1.135 1.135 0 0 1 0-.943c.069-.15.16-.28.274-.392.114-.112.247-.2.399-.264.151-.067.313-.1.483-.1z" fill="#111"/></svg><svg fill="none" viewBox="0 0 24 24" id="serviceStatus-warn" xmlns="http://www.w3.org/2000/svg"><rect x="12" y=".75" width="15.865" height="15.955" rx="2" transform="rotate(45 12 .75)" fill="#E69700"/><path d="M12.965 12.948h-1.913L10.824 8h2.37l-.229 4.948zm-.957.59c.168 0 .325.033.473.1a1.25 1.25 0 0 1 .667.656 1.135 1.135 0 0 1 0 .943c-.065.15-.154.28-.268.393a1.33 1.33 0 0 1-.399.269 1.181 1.181 0 0 1-.957 0 1.31 1.31 0 0 1-.672-.662 1.135 1.135 0 0 1 0-.943c.069-.15.16-.28.274-.392.114-.112.247-.2.399-.264.151-.067.313-.1.483-.1z" fill="#111"/></svg><svg fill="none" viewBox="0 0 24 24" id="serviceStatus-warn-hover" xmlns="http://www.w3.org/2000/svg"><rect x="12" y=".75" width="15.865" height="15.955" rx="2" transform="rotate(45 12 .75)" fill="#E69700"/><path d="M12.965 12.948h-1.913L10.824 8h2.37l-.229 4.948zm-.957.59c.168 0 .325.033.473.1a1.25 1.25 0 0 1 .667.656 1.135 1.135 0 0 1 0 .943c-.065.15-.154.28-.268.393a1.33 1.33 0 0 1-.399.269 1.181 1.181 0 0 1-.957 0 1.31 1.31 0 0 1-.672-.662 1.135 1.135 0 0 1 0-.943c.069-.15.16-.28.274-.392.114-.112.247-.2.399-.264.151-.067.313-.1.483-.1z" fill="#111"/></svg><svg fill="none" viewBox="0 0 24 24" id="square-close" xmlns="http://www.w3.org/2000/svg"><rect opacity=".07" width="24" height="24" rx="2" fill="#F9F9F9"/><path stroke="#7E7E7E" stroke-width="2" d="M7.906 7.793l8 8M8.09 15.793l8-8"/></svg><svg fill="none" viewBox="0 0 5 8" id="subMenuBack" xmlns="http://www.w3.org/2000/svg"><path d="M3.293 7.293L.707 4.707a1 1 0 0 1 0-1.414L3.293.707C3.923.077 5 .523 5 1.414v5.172c0 .89-1.077 1.337-1.707.707z" fill="#7E7E7E"/></svg><svg fill="none" viewBox="0 0 5 9" id="subMenuRight" xmlns="http://www.w3.org/2000/svg"><path d="M1.707 7.793l2.586-2.586a1 1 0 0 0 0-1.414L1.707 1.207C1.077.577 0 1.023 0 1.914v5.172c0 .89 1.077 1.337 1.707.707z" fill="#7E7E7E"/></svg></defs></svg>