<svg id="Layer_1" xmlns="http://www.w3.org/2000/svg" viewBox="0 0 100 100"><style>.st0{fill:#f2f2f2}.st1{fill:#e4373c}.st2{fill:#bfcad1}</style><path transform="rotate(-45.001 53 49.5)" class="st0" d="M24.36 20.86h57.28v57.28H24.36z"/><path class="st1" d="M27.87 39.88c-.04-.12 0-.22.04-.33.02-.05.02-.11 0-.14-.02-.03-.04-.06-.06-.05-.06.05-.14.09-.17.24-.02.13-.04.19-.1.13-.06-.05-.11.07-.17.09-.02.01-.05.05-.05.11s.03.07.05.06c.07-.04.11.02.1.18-.01.11.01.18.05.18.08 0 .15.09.23-.06.03-.06.06-.09.09-.03.06.12.12-.01.18-.01.01-.04.02-.08.01-.11-.12.07-.15-.12-.2-.26zm15.96-2.57c.07-.07.12-.07.16.09.06.22.14.22.25.07.04-.05.08-.08.11-.14.03-.06.06-.16.06-.24.01-.11-.04-.11-.08-.12-.11-.04-.21-.1-.33-.05 0-.07 0-.15-.04-.14-.12.02-.16.28-.25.41-.02.03.01.17.03.17.03-.01.06-.02.09-.05zm7.33.96c.01.07.07.04.11.04.01-.02.03-.03.04-.05.02-.03.04-.09.03-.12-.03-.07-.05.01-.07.06-.11-.08-.07-.35-.12-.51-.03-.11-.01-.19.06-.24.01-.01.02-.08.01-.09-.05-.11-.11-.21-.19-.25-.01-.01-.03.02-.04.05-.04.12-.09.24-.02.37.03.06.01.12-.04.12-.04 0-.06.04-.07.12-.01.08.01.15.05.15.12.01.2.1.25.35zm4.7-.91c-.06.03-.15.06-.14.25.01.15.09.07.14.07.03 0 .07-.01.1-.03.04-.02.06-.08.07-.15.01-.09.01-.18.02-.26.06-.11.07-.25.07-.41-.09-.03-.19-.01-.29.03-.03.01-.06.07-.08.12-.01.02-.02.07-.02.1s.02.07.03.06c.06 0 .12-.05.16.05.02.04.01.09-.01.14-.02.01-.04.02-.05.03zM28.15 65.03c-.02 0-.05.03-.06.06-.01.02-.01.07-.02.1-.06.21-.06.21-.14.13-.04-.03-.07-.06-.11-.05-.04.01-.06.03-.04.13.01.04.01.1 0 .14-.01.06-.06.11-.04.18.01.1.06.06.1.07.07.01.14-.05.21-.14.02.03.03.07.05.09.12-.14.12-.14.11-.33 0-.1.01-.21 0-.31-.01-.03-.04-.07-.06-.07zm15.34-27.54c.03 0 .06-.13.04-.18-.01-.04-.03-.08-.05-.09-.05-.03-.06-.09-.02-.18.02-.04.04-.08.06-.11.07-.13.07-.24.01-.33-.03-.04-.07-.09-.11-.07-.06.03-.04.14-.03.21.01.08-.01.14-.04.19-.05.08-.05.19-.07.29-.03.15-.02.2.04.22.06.02.12.03.17.05zm9.84-.14c.03.14.07.21.15.13.05.03.09.03.14-.05.03-.05.06-.1.01-.13-.04-.03-.07-.08-.06-.17 0-.13-.01-.21-.08-.1-.05.08-.09.07-.12-.04-.02-.07-.05-.12-.08-.18-.01-.01-.03 0-.04.02-.01 0-.01.03-.01.05 0 .07-.01.15.01.2.02.09.06.16.08.27zm-4.28.98c.02.1.01.24.01.36v.15c0 .06.03.08.05.06.01-.01.02-.05.03-.08.04-.18-.05-.32 0-.51v-.16c.01-.13-.02-.16-.07-.12-.08.09-.11-.08-.16-.11-.02-.01-.05-.01-.06.04-.01.03-.01.07-.01.1 0 .09.01.16.06.18.05.02.13-.04.15.09zm.84 0c.07.01.1.13.1.29.02-.01.03-.01.05-.02.04-.03.08-.09.09-.19.01-.09-.03-.11-.06-.12-.07-.02-.11-.12-.14-.24-.03-.14-.09-.16-.16-.14-.05.01-.1-.01-.15.06.03.12.12.02.13.16.02.16.07.19.14.2zm-22.51.65zm.26.13c.07-.04.12-.02.17.06.03.04.06.03.08-.06.01-.07.01-.15-.02-.17-.11-.06-.22-.12-.34-.17-.07-.03-.12.07-.16.22.09.06.18.17.27.12zm14.61.06c.03.05.02.12.02.19 0 .04.02.08.04.09.05.02.12-.13.1-.23-.01-.06-.03-.09-.02-.18.02-.15 0-.24-.06-.22-.06.05-.14.03-.17.2-.03.18.06.1.09.15zM24.13 52.65c0-.22-.13-.07-.16-.21-.01-.06-.05-.09-.08-.02a.47.47 0 0 0-.05.24c.02.13.04.25.1.3.01-.01.01-.03.02-.04.06-.09.12-.18.17-.27zm-.18.31v.01-.01z"/><path class="st1" d="M67.45 39.95c-.05 0-.1.03-.14.11-.05.09-.07.05-.08-.05-.03-.17-.05-.1-.08.04-.01.03-.04.04-.07.06-.01-.06-.02-.13-.02-.19-.01-.24-.08-.34-.17-.39-.01-.01-.04.04-.06.07-.01.01 0 .08.01.09.1.11.18.24.14.55-.05.01-.1.02-.15.02-.03-.08-.06-.18-.1-.25-.04-.07-.1-.06-.15.06-.06.02-.1-.03-.14-.08-.03-.06-.08-.11-.07-.17.01-.21-.01-.34-.09-.43-.03-.03-.03-.14.01-.23.08-.2.12-.21.16-.02.01.08.02.16.04.24.01.06.05.08.08.05.07-.05.12-.23.2-.22.03-.02.07-.03.08-.1.03-.17.06-.32.14-.41.04-.04.02-.12 0-.17-.03-.08-.08-.09-.13-.06-.11.07-.22.09-.32.25-.02 0-.03.01-.05.01-.01-.07-.03-.14-.04-.2l.2-.03c.07-.21.07-.23.02-.42-.02-.03-.03-.06-.05-.09-.02-.03-.08 0-.05-.11.01-.04.04-.09.06-.08.06.01.11-.01.17-.07.09-.1.19-.12.28-.05.02.02.05 0 .07-.09-.09-.11-.12-.35-.23-.43-.09-.07-.15-.21-.2-.37v-.09c.03-.08.03-.15.01-.22 0-.09-.01-.17-.04-.22-.03-.06-.08-.03-.1.07-.01.07-.01.14-.02.21-.02.19-.07.29-.16.31-.01-.09-.1-.1-.03-.29.05-.15.03-.24-.03-.26-.1-.03-.2-.05-.28-.15-.03-.04-.06.02-.09.07-.1.14-.19.15-.24-.06-.02-.08-.06-.1-.1-.02-.06.11-.13.22-.17.36-.05.17-.14.1-.18.27v.06-.01c-.05.17-.14.23-.21.35-.03-.03-.08-.05-.05-.17.01-.04.04-.1.02-.13-.07-.08-.11-.22-.15-.34-.01-.03-.04-.04-.06-.03-.03.01-.04.07-.03.12.02.17-.01.27-.1.3-.08.08-.17.15-.25.23-.03-.03-.06-.05-.09-.08-.03-.12-.1-.09-.16-.14-.06-.05-.08.07-.09.17-.18-.05-.36-.26-.56.03-.03.04-.07-.01-.11-.02-.07 0-.13.09-.17.22-.02.05-.01.1.01.12-.01.07-.01.14-.02.21h-.04c-.11-.04-.21-.11-.33-.05-.05.02-.09.06-.12.18-.03.14-.07.16-.12.1-.09-.1-.17-.13-.26.1-.05.13-.12.14-.18.15h-.05c.01-.22-.07-.08-.12-.1-.07-.02-.12.01-.18.13-.05.11-.11.19-.11.35 0 .03-.01.06-.01.1-.02.03-.04.07-.05.1-.01.01-.03.01-.04.02.01-.18-.01-.3-.09-.36-.06-.04-.11-.02-.16.07-.04.08-.09.13-.14.15h-.04c-.03-.07-.05-.15-.08-.22-.04-.08-.08-.04-.1.1-.01.05-.01.1-.01.16-.04.03-.07.08-.11.05-.06-.04-.07-.14-.09-.26 0-.04-.03-.08-.04-.09-.03-.01-.04.06-.04.11-.01.2-.05.34-.15.35-.02-.03-.03-.06-.05-.09-.02-.1-.04-.2-.07-.33-.02.16-.03.29-.05.42-.02.09-.07.18-.1.13-.1-.16-.2-.12-.31-.03-.04.04-.1.02-.14-.01-.08-.06-.17-.03-.26-.02-.09-.01-.18-.04-.27.03-.13.11 1.65 1.21 1.53 1.19-.02.04-1.93-1.03-1.95-1-.06.08-.11.13-.18.06-.06-.07 1.84.91 1.84.78.05-.08.05-.15.01-.22v-.11c.04-.02.08-.04.1-.15.01-.11.01-.21-.03-.27-.07-.09-.14-.18-.23-.19 0-.11.01-.21.01-.32 0 0-.01-.01-.01-.03v-.01c0 .02 0 .04.01.04v-.11c.02-.24.1-.42.14-.64.02-.1.04-.2.02-.3-.03-.11-.07-.2-.06-.36.02-.22-.11-.15-.12-.3 0-.03-.01-.07-.01-.1-.03-.06-.06-.13-.09-.19-.07.02-.1.12-.1.26s.03.22.08.27v.11c-.04-.02-.08-.03-.11-.05-.05-.03-.09-.02-.13.09-.03.01-.07.01-.1.02-.01-.08-.05-.1-.09-.1-.02-.03-.03-.07-.05-.1-.02-.08-.04-.19-.1-.15-.04.02-.04.11-.05.18v.1c.1.08.11.15.04.29-.02.04-.07.03-.04.14l.19-.03c-.08.1-.13.24-.14.43-.04-.02-.07-.04-.08.12 0 .03.01.07.01.1-.01.14-.06.21-.11.14-.02-.02-.03-.06-.05-.1-.02-.02-.03-.07-.04-.1 0-.22-.03-.45.07-.65h-.05c-.01-.06-.03-.05-.05.01-.02.01-.03.01-.05.01-.09-.03-.17-.02-.25.14 0 .11-.02.24.03.31.02-.04.04-.07.06-.11.03 0 .07-.01.1-.01.02.03.03.07.01.12-.02.07-.05.14-.07.21-.05.13-.1.25-.14.39-.05.18-.15.07-.2.21 0-.03-.01-.06-.01-.09-.01-.06-.02-.08-.05-.03-.12.02-.12.02-.14-.18 0-.07.01-.15-.04-.14-.05.01-.09-.01-.14.07-.06.11-.08.01-.1-.08-.01-.04-.01-.09-.02-.14-.05.07-.04.21-.09.26-.09-.14-.19-.28-.28-.42-.01-.01-.03 0-.04.01-.01.02-.02.08-.02.09.08.18.06.41.01.63-.02.11-.01.27-.08.33-.06.05-.08-.09-.12-.1-.01-.01-.03.01-.04.03-.01.02-.01.06-.01.1.01.14.01.14-.08.16a.292.292 0 0 1-.02-.09c-.03-.22-.03-.22.06-.34.01-.02.03-.02.05-.04.06-.09.09-.23.06-.32-.03-.1-.09-.06-.13 0-.1.15-.17.11-.24-.03l-.03-.06c.08-.29-.06-.35-.09-.53.01-.02.01-.05.01-.09-.01-.08 0-.17 0-.26-.02-.03-.03-.07-.05-.1-.03-.03-.03-.07 0-.11.03-.08.03-.15.01-.21v-.1a.3.3 0 0 1-.04-.1h-.02l-.02.01c-.07.01-.13.02-.19.03-.05-.03-.1-.13-.16-.04-.05.07-.05.28-.14.27-.01 0-.03.04-.04.07-.04.16-.06.31-.02.48.02.09.06.13.07.23-.07.14-.13.29-.2.43-.1.19-.1.21 0 .34.02.03.04.04.06.07.01.02.01.07.01.1-.01.08-.03.06-.05.02-.03-.07-.07-.05-.11-.04-.1.03-.1.02-.08-.16.02-.14.04-.28-.02-.38v-.1c-.04-.15-.13-.07-.19-.08-.01-.08-.04-.17-.08-.14-.1.08-.12-.1-.17-.14-.06-.05-.14.17-.22.11-.09-.06-.13.01-.16.23-.03.21-.05.41-.12.59-.05.01-.1.01-.15.02-.01-.07-.03-.13-.04-.2 0 0 .01-.01.01-.04s0-.05-.01-.07c-.04.01-.08.03-.1.12l-.06-.06c-.2-.12-.23-.04-.22.43 0 .03.01.06.02.09-.02 0-.03.01-.05.01-.08.03-.1-.17-.17-.18-.06-.01-.08.04-.07.22-.03.01-.06.02-.1.02-.06-.03-.12-.06-.18-.08-.03-.01-.07.01-.09.08-.07.25-.21.39-.25.69-.05-.02-.09-.05-.14-.07a.605.605 0 0 1-.14-.29c0-.21.05-.32.14-.39.02-.01.04-.09.04-.13 0-.04-.02-.09-.04-.11-.12-.08-.17-.02-.25.28-.01.05-.02.1-.04.15-.02.04-.04.08-.05.12-.05.07-.1.08-.15.03a.106.106 0 0 1 .01-.12c.02-.03.04-.08.03-.13-.01-.05-.04-.04-.06-.02-.02.02-.04.05-.07.07h-.05c0 .07-.01.14-.01.21.01-.07.03-.14.01-.21 0-.14-.02-.21-.09-.19l-.2.03h-.05c-.12 0-.15.05-.12.25.01.06.05.13 0 .16-.12.08-.1.32-.16.46 0 .01 0 .02.01.03h-.01v-.03c-.02.01-.03.02-.05.02v-.21c.01-.14.03-.28.03-.42.01-.16-.09-.16-.09-.31v-.1l.2-.14c-.04-.17-.05-.38-.15-.44-.03.06-.03.13-.04.19-.01.07-.03.13-.05.18-.02.04-.03.08-.05.12.01.03.03.07.04.1-.01.09-.01.2-.07.12a.333.333 0 0 1-.05-.15c.01-.2-.07-.19-.11-.25-.03-.1-.1-.13-.09-.3 0-.12-.02-.17-.08-.11-.02.02-.04.02-.06.03-.02-.18-.03-.36-.05-.56-.09.05-.16.09-.17.33 0 .08-.02.17-.04.26 0 .02-.03.04-.04.04-.01-.01-.02-.04-.03-.06 0-.03-.01-.07 0-.1.02-.1.05-.2.01-.29-.03-.05-.07.04-.13.21-.05.15-.05.31-.06.46-.03-.04-.06-.09-.09-.13-.02-.02-.05-.02-.06 0-.02.03-.02.09-.02.14.01.24.01.24-.09.35h-.04c-.03 0-.07.01-.1.01-.09 0-.19.14-.27-.03-.02-.03-.04.02-.05.08-.02.15-.08.09-.12.12-.03-.06-.03-.13.01-.21-.01-.33-.01-.33-.14-.24-.16.1-.26.36-.36.62-.05.05-.09-.09-.15.01-.02.01-.03.02-.05.02-.03 0-.07-.01-.06-.1.02-.17.05-.34.07-.51 0-.04-.01-.1-.02-.13-.02-.05-.04-.01-.06.02-.06.1-.1.2-.04.34.01.03-.02.13-.03.19-.08.02-.17.03-.25.05-.04 0-.07-.01-.09-.09-.03.01-.06.01-.1.02-.04-.03-.06-.22-.1-.14-.09.18-.17.11-.24.07-.08-.04-.14.01-.19.15-.02.04-.04.08-.05.12-.07 0-.13-.05-.18-.16-.02-.03-.03-.07-.05-.09-.01-.01-.03 0-.04.01-.02.02-.02.05 0 .08.05.15.06.32.07.51-.05.08-.09.23-.16.15-.02-.02-.06 0-.09.01-.04-.45-.05-.46-.26-.31-.02.02-.05.03-.07.04v-.1c.01-.03.04-.07.03-.08-.04-.19-.08-.37-.17-.47-.03-.03-.08.06-.07.11.03.19-.07.36-.05.55.01.11-.04.14-.08.15-.09-.03-.09-.03-.11.18v.05c-.02.04-.03.08-.05.11-.02 0-.03.01-.05.01-.04-.15-.1-.01-.15.01-.01.01-.03.01-.04-.01-.03-.05.01-.08.02-.12.03-.08.04-.16 0-.23-.03-.06-.08-.02-.11.12-.03.17-.08.28-.16.3-.02-.08-.06-.08-.1-.03-.06.06-.11.09-.14-.04 0-.02.01-.03.01-.05.02-.06.04-.14.02-.19-.03-.07-.05 0-.08.05-.06.13-.12.21-.19.12-.02-.04-.03-.07-.05-.11-.02-.05-.05-.09-.08-.05-.07.09-.12.05-.17-.01.02-.04.03-.09.05-.12.05-.07.05-.15.03-.23-.02-.08-.03-.2-.1-.14-.05.05-.09.05-.13-.02-.03-.07-.08-.1-.12-.1-.04-.01-.06-.15-.12-.07.01.05.01.1.02.14.01.06.02.13.05.16.09.11.13.31.14.53-.03.03-.05.08-.08.1-.03.03-.06.05-.07.12.02.04.03.07-.01.1-.02 0-.03.01-.05.02-.02 0-.03-.01-.05-.01-.01-.06-.04-.08-.07-.09-.02-.01-.04-.04 0-.09.01-.02.03-.03.04-.06.01-.04 0-.07-.02-.06-.15.07-.21-.09-.24-.36 0-.01-.01-.02-.01-.03l.06-.43.06-.32c0-.07-.01-.1-.04-.09-.02.03-.04.07-.06.1-.04-.03-.08-.1-.13-.06-.01.01-.03.04-.04.06-.02.05-.01.1.01.14.03.08.07.02.11-.02v.21c-.02.04-.04.08-.05.12-.08-.05-.13-.19-.19-.33-.04-.09-.11-.1-.12-.26-.01-.19.07-.26.12-.39.06-.15.06-.35.03-.49s-.1.03-.15.03c-.02 0-.05.01-.07.02h-.05c0-.14-.03-.2-.09-.19-.02.09-.06.11-.1.12-.02-.1-.04-.16-.09-.2-.07.03-.14-.03-.2.14-.05-.03-.1-.06-.14-.09 0 .07 0 .15-.01.22v.09c.01.04.03.08.05.1.01.09.05.11.09.1-.04.13-.13.17-.16.34-.04.06-.09.06-.14.08-.03.01-.05.13-.03.17.03.07.07.12.1.19v.1c-.04.01-.08.03-.1.12-.03-.01-.07-.01-.09-.04-.08-.14-.14-.08-.21.09-.05 0-.11.04-.14-.08-.03 0-.06 0-.09.01 0-.13.01-.27-.03-.4-.05-.17-.04-.19.04-.33.07-.11.15-.19.14-.42 0-.06.02-.09.05-.08.05.01.08-.05.1-.14.02-.07.04-.14.02-.2s-.05-.06-.09-.03c-.07.08-.14.14-.2.01-.08-.17-.12.04-.18.13-.03-.11-.06-.1-.1.01h-.04c-.02-.08-.05-.09-.09-.09v-.1c.05-.16-.02-.08-.04-.1 0-.12-.02-.23-.05-.32-.02-.05-.04-.01-.06.03-.04.12-.04.23.01.3-.01.11-.01.21-.01.32-.05.07-.07.17-.09.27-.03.11-.02.21.02.27v.1c-.07.17-.07.17-.02.32v.1c.01.07.04.14-.01.21-.05.08-.02.14-.01.21-.02.04-.03.08-.05.11-.07.03-.13-.01-.19-.07-.01.05-.01.14-.03.14-.1.07-.11.25-.14.41-.02.04-.03.08-.05.11 0-.12-.01-.25-.07-.26-.08-.01-.07.17-.1.26-.02.04-.02.09-.04.14-.03.04-.07.08-.1.12-.02-.03-.03-.06-.05-.09-.02-.28-.14-.3-.23-.42-.04-.06-.08.05-.09.13-.02.11-.01.17.05.15.04-.01.07 0 .06.1-.02.13-.03.24-.01.36 0 .01-.02.06-.03.07-.02.02-.12-.05-.12-.1a.82.82 0 0 0-.05-.33c-.01-.04-.04-.08-.06-.07-.06.05-.01.11 0 .16.02.14-.03.19-.07.24-.05-.1-.1.04-.15.03h-.02l-.02.01c-.02 0-.03 0-.05.01-.05.01-.1.01-.15.02-.03-.11-.09-.13-.14-.19-.02-.03-.03-.07-.04-.1.02-.08.04-.16.06-.25.03-.14 0-.25-.07-.22-.1.05-.19.08-.28.2-.05.07-.09.05-.13-.02-.03-.06-.07-.12-.11-.18-.09-.12-.19-.13-.29.06v.1c-.02.06-.06.15-.07.05-.02-.19-.04-.32-.15-.27-.06-.01-.12-.11-.18.07-.01 0-.02 0-.04-.01-.01-.04.02-.2-.05-.08-.08.01-.16.03-.25.04 0-.11.01-.22.01-.32-.03-.2-.13-.24-.18-.39 0-.17-.04-.29-.11-.21-.11.12-.14.03-.17-.16-.01-.11-.06-.19-.08-.28-.03-.11-.02-.18.04-.23.06-.04.11-.08.13-.23.02-.1.06-.19.08-.28.02-.06-.01-.15-.04-.12-.06.05-.13.13-.18-.01-.01-.03-.03-.03-.04.01-.06.12-.1.47-.09.64.01.09-.01.2-.06.21-.11.01-.12.18-.13.33-.03.25.02.43.11.54.05.06.04.14-.01.22-.07.04-.15.08-.19-.08v.01c-.09.01-.18.05-.26-.02-.02-.02-.05 0-.06.06-.01.06.01.08.03.11.06.08.06.08-.02.22-.07-.08-.08-.07-.1.07-.01.05-.01.1-.01.16a.55.55 0 0 0-.09.07c-.05.05-.1.07-.12-.06-.01-.09.03-.16.06-.22.01-.02.03-.04.05-.04.05 0 .08-.08.08-.16 0-.17-.05-.04-.08-.03-.03.01-.04-.01-.06-.02-.1-.07-.17-.04-.31.11-.05.05-.1.09-.15.14 0-.05 0-.1-.01-.14-.03-.14-.03-.13-.12.01-.03.05-.08.05-.11.08-.05 0-.11.03-.14-.09-.02-.08-.05-.09-.09-.1-.01-.09-.04-.17-.02-.29.02-.2.02-.24-.08-.19-.03.01-.06.02-.09.02-.09-.02-.13-.07-.11-.29.02-.29-.08-.47-.08-.75 0-.01-.03-.01-.04-.02-.02 0-.03.01-.05.01-.1.36-.1.36.01.54.02.04.08.04.07.17l-.11.14c-.02 0-.03 0-.05.01-.01-.02-.02-.06-.03-.06-.1.05-.19.24-.29.13-.01-.01-.04.02-.04.04-.04.16-.14.14-.18.29-.05.01-.1.02-.15.02-.05-.04-.1-.08-.14.07-.03.11-.06.16-.11.18-.04.02-.08.02-.06.15.01.04.01.09.02.14-.1.07-.19.16-.27-.02-.03-.08-.08-.06-.13.01-.04.05-.07.09-.11.13-.06-.06-.12-.11-.19-.08-.05-.04-.09-.11-.14-.07-.04-.02-.07-.03-.11-.06-.04-.02-.08-.03-.11.04-.14.29-.25.2-.36 0-.03-.06-.06-.1-.1-.1-.02-.03-.03-.06-.05-.1v-.1c.01-.08.01-.18.07-.18.02.23.08.09.13.04 0-.09-.02-.16-.04-.22-.03-.07.01-.13.03-.17.04-.06.08-.02.12-.02.06.01.11-.11.07-.19-.09-.2-.08-.39.02-.62.01-.01.01-.03.01-.05.02-.11 0-.13-.04-.1-.06.05-.09-.03-.11-.13 0-.08 0-.19-.06-.16-.04.02-.04.11-.04.18 0 .07 0 .14-.01.21-.02.04-.04.07-.06.11-.14-.03-.18.02-.2.3-.01.16-.03.31-.06.47-.02.16-.05.14-.1.1-.01-.01-.05.03-.07.05-.06 0-.13.02-.14-.16-.01-.1-.04-.12-.08-.14-.02-.07-.06-.08-.1-.08-.03.01-.05.05-.05.11-.03.09-.06.11-.1.06l-.09-.12c-.01.03 0 .05 0 .08v-.08h-.02l-.02.01c-.03 0-.06 0-.09.01-.08.02-.08.02-.07.22a.36.36 0 0 0-.06.22c0 .17.02.34-.01.5-.02.16-1.99-.8-2.03-.65-.04.02-.08.05-.1.13-.02 0-.03.01-.05.01-.03 0-.06.01-.09.01v-.1c-.01-.1-.04-.16-.09-.2 0-.1 1.91.9 1.91.79.01-.28 0-.29-.12-.3-.03 0-.07.02-.1 0-.11-.08-.17.07-.22.25-.02.01-1.93-1.1-1.95-1.09-.06.01-.1-.05-.14-.08v.01c-.07-.12-.07-.12-.15.02v-.01c-.07.01-.12.09-.15.24l-.2.03h-.05c0-.13-.03-.2-.09-.19h-.05l-.18-.33c-.03-.06-.07-.03-.1.06v.01c-.03.07-.03.14-.01.21 0 .07 0 .14-.01.21-.04.01-.08.01-.12.03-.06.03-.06.05-.04.21.04.24.06.46-.08.68-.04.07-.03.24-.09.36-.07.15-.11.13-.17.06v-.1c-.03-.1-.06-.1-.1.01 0 .04 0 .07-.01.11v.1c-.19.14-.19.27-.2.38-.03.08-.07.15-.1.23-.02-.03-.03-.07-.05-.1-.01-.03-.03-.06-.05-.09h-.04c-.03.02-.06.07-.09.03-.03-.03-.05-.09-.07-.1-.08-.04-.19.16-.15.31.05.19-.02.37-.01.55-.16.18-.18.16-.19-.15v-.05c0-.05 0-.11-.03-.11-.03.01-.05.08-.07.14-.1.05-.19.16-.29.17-.03 0-.05.09-.04.11.08.16-.02.28-.04.41 0 .09 0 .16.04.21.03.1.06.1.1-.02.1-.01.1.17.13.29-.04.05-.05.13-.06.22-.01.14-.01.28-.02.42-.03.01-.07.01-.1.02-.03 0-.07.01-.1.01l-.09-.09c-.01-.03-.03-.07-.04-.1.01-.01.02-.02.02-.04.01-.04 0-.06-.02-.07-.02-.03-.03-.07-.04-.1-.01-.11-.08-.16-.06-.3.02-.11.03-.23-.03-.23-.05 0-.04.14-.06.21-.03.1-.03.2 0 .28.03.07.05.16.04.27-.08.12-.05.29-.07.43-.04.04-.08.1-.09.18-.02.23-.1.46-.04.69-.02.1-.03.2-.05.3-.02.15-.01.18.08.11.03-.02.04-.01.05.04.01.07.02.13.04.16.02.22-.07.37-.12.54-.05.02-.1-.05-.14-.08-.02-.07-.03-.15-.05-.22-.03-.1-.08-.09-.13-.05-.05.04-.05.13-.06.22-.01.15.01.27.03.39 0 .03 0 .07-.01.1-.05.16-.05.17.04.21-.03.1-.11.17-.06.33-.12.12-.11.34-.12.55-.05.07-.11.13-.04.25.03.05.05.11.07.17.02.07.05.1.09.08.12-.08.14-.04.11.18 0 .03 0 .07-.01.1-.11.49-.1.52.09.68l.02.02c.02.01.05.01.06-.04.01-.02 0-.08-.01-.09a.606.606 0 0 1-.1-.37v-.04c.02-.09.04-.17.07-.26.05-.05.1-.13.15-.13 0 .01.01.03.01.04.13.27.23.35.38-.1.06-.01.1.04.13.15.01.05.03.1.05.15v.11c-.06.01-.1.09-.11.23-.11.14-.15.33-.17.6.09-.07.15-.16.21-.28.06-.01.09.06.08.19-.01.14-.01.28-.02.42-.03.08-.07.15-.1.23-.03-.1-.06-.09-.1.01-.05.05-.08.13-.11.23 0 .05 0 .11-.01.16.01-.06.02-.11.01-.16-.03.04-.07.08-.1.12-.03.01-.07.02-.08.09-.02.12.03.11.07.12 0 .07 0 .14-.01.21-.05.01-.1.05-.13.15-.07.24-.18.34-.28.45-.12.1-.23-.11-.35.05-.03.04-.03-.04-.03-.08 0-.12.02-.26-.04-.32h-.02l-.02.01c-.06.07-.12.11-.16.24.03.06.03.12-.01.2.03.13.1.08.14.12.06.05.06.19-.01.3a.31.31 0 0 0-.05.17c0 .11.04.13.08.13h.05v.1c-.04.02-.08.02-.12.05-.06.04-.07-.02-.08-.11 0-.04-.02-.08-.04-.12-.05-.08-.08-.22-.17-.25.02.18.03.31.04.44.01.11-.06.26-.11.26-.08 0-.14-.06-.18-.17-.03-.08-.02-.19 0-.3.01-.08 0-.17.01-.26.01-.12.07-.27-.02-.29-.05-.01-.04.17-.07.26-.01.04-.02.1-.03.15-.04.2-.04.19-.16.13-.01-.01-.03.03-.04.05-.04.05-.05.13-.06.22 0 0-.01.01-.01.04s0 .05.01.07v.1c-.05.09-.11.16-.16.26-.05.09-.03.15.02.18.04.03.04.06.01.14-.02.05-.03.12-.04.19-.02.04-.03.08-.05.12v.11c-.04.02-.09.01-.12.07-.1.23-.19.21-.28.1 0 .09 0 .17.04.2 0 .09 0 .17.04.21.07.16.08.17.13.07.01-.01.01-.02.02-.04.08-.26.2-.4.32-.53.03-.09.07-.12.1-.05.02.04.03.11.04.17.01.06.01.15.05.12.02-.01.03-.07.04-.12.03-.14.06-.29.06-.44.06.01.12-.06.16.04 0 .09 0 .16.04.21-.01.12.02.21.04.31.01.2-.06.31-.12.44-.03.01-.07.01-.1.02-.1.06-.1.08-.06.22.01.03.03.06.04.09-.06.09-.07.22-.11.33-.02.01-.03.01-.05.01-.05.01-.1.02-.15.02-.01-.1-.04-.17-.09-.2.09-.13.11-.35.19-.5.03-.05.02-.13 0-.18-.03-.06-.07-.12-.1-.17-.05.13-.12.23-.15.38-.03.17-.1.19-.17.2-.08-.05-.08-.05-.11.12-.08.05-.16.12-.21-.07-.02-.06-.02-.18-.08-.1-.04.05-.05.15-.04.24 0 .05.02.1-.01.14-.11-.12-.23-.2-.33-.36-.02-.03-.05-.02-.07.02-.02.04-.02.09-.03.14-.02.17.05.22.07.35.01.12.08.04.13.05.05 0 .1-.01.12.09-.05.04-.1.09-.15.13-.13.02-.19.26-.26.47-.07-.07-.1-.06-.15.09-.04.13.01.13.04.14.03 0 .07-.01.1-.01.14.12.31.06.43.25.03 0 .06-.01.1-.01.06 0 .07.05.08.17.02.23-.01.47 0 .69.13-.13.13-.13.28-.08.02.08.05.1.09.1 0 0 .01.01.01.03v.01c0-.01 0-.03-.01-.04v.1c-.02.05-.02.09 0 .13.05.11.06.26.05.42 0 .19 0 .19.07.13.05-.05.11-.09.16-.15.11-.11.17-.01.22.15v.2c-.03.38-.03.38-.12.65-.05.01-.09.02-.14.04-.07.04-.08.09-.07.31-.04.01-.08.02-.12.04-.05.02-.07.08-.07.18 0 .08.03.11.06.12.05.01.09-.01.13-.11h.05c.01.03.03.06.04.09.01.18-.04.39.03.52.11.11.11.11.15-.12-.02-.18-.02-.18.05-.22.08.11.15.02.2-.14h.05v.1c.01.11.04.25.02.34-.06.25 0 .38.06.53.08.2.08.2.2-.06.04.03.08.09.13.01.13-.2.26-.29.41-.31l-.06.22c-.05.08-.05.15-.01.22.03.06.06.13.09.19-.02.04-.04.07-.06.11-.04.06-.05.14-.03.22.01.06.01.13.01.2-.08.04-.11-.07-.15-.18-.01-.03-.03-.04-.04-.01-.02.04-.04.09-.04.13.01.19.07.32.07.52-.01.07.01.09.04.09.04.04.05.12.05.2.01.09.03.14.07.19.05.06.05.12.01.25-.05.15-.04.16.05.28.01-.01.03-.01.04-.01.01.04.03.08.04.12.07.25.19.11.29.06.03.1.06.1.1-.02.1-.05.18.02.25.16h.08c.05-.04.1-.11.16-.08.1.04.1.01.09.22 0 .03-.01.07-.01.1 0 .27.09.38.19.19s.19-.2.3-.21c.01.04.03.09.02.13-.01.16.02.17.08.09.02-.03.05-.04.06.02 0 .04-.01.1-.02.15.04-.01.08-.03.1-.12.05.03.09.05.14.08.07-.2.08-.25.02-.28-.1-.05-.07-.19-.05-.35.02-.18.02-.18.12-.23.11-.03.1-.21.11-.37.01-.12.04-.08.06-.03.01.02.02.04.04.06.03.13.06.22.15.13.07-.07.08.02.09.14-.01.01-.03.02-.04.02-.04.07-.04.14-.01.21-.03.2-.08.4.04.52.05.05.05.27.14.26.02 0 .01.09-.01.12-.08.15-.1.3-.02.44.01 0 .03 0 .04.01v.09c-.08.12-.16.31-.26.21-.06.13-.1-.02-.14 0-.08.04-.16.12-.2.31-.02.04-.04.08-.05.11l-.06.32c-.05.03-.1-.01-.13.13-.02.1.03.14.06.19.03.05.05.12.09.16.04.05.09-.01.13.05.03.05.06-.11.1-.15.08-.09.09-.26.11-.41.02-.16.08-.23.15-.25.05-.01.09.04.13.09.01-.01.01-.02.02-.03v.01l-.02.02v.09s-.01.01-.01.04 0 .05.01.08v.1c0 .09 0 .17.04.21.02-.04.03-.08.05-.11v-.11c0-.03.01-.06.01-.09.05-.1.05-.22.06-.34.05.04.1.09.16.09.09-.01.01.22.06.26.02.02.04.01.07.01.02 0 .03-.02.05-.02 0 0 .01.02.01.03 0 .03-.01.07-.02.08-.03.02-.06.04-.1.05-.07.01-.11.07-.09.24.01.06-.02.13-.03.2.01.05.03.1.04.16.01.09.04.14.09.09.08-.08.1.02.12.13.03.19.06.12.09-.04.01-.05.04-.06.06-.04.06.03.09.1.08.25 0 .02.01.06.02.06s.03-.02.04-.04c.04-.1.07-.21.06-.34-.01-.09.04-.1.07-.11.03.1.03.24.09.29.02.11.08.07.11.14.04.09.07.09.11-.01.01-.03.04-.03.07-.05.03.1.07.09.1-.02.16-.21.32-.27.48-.21.03.01.06.01.09.01.07-.01.1-.06.12-.23.01-.07.01-.14.01-.21 0-.12.04-.19.08-.27.03-.07.01-.13-.01-.16h-.02l-.02.01c-.02.07.02-.08-.01-.04s-.02-.03.01-.05c.09-.05.1-.04.14.12.06.24.06.24.19.12.01.07.03.07.05-.01.05-.06.07-.23.15-.22 0 .03.01.06.01.09.01.04.03.07.05.09.05-.02.1.03.13-.17s0-.42.09-.59c.02.03.03.07.05.09.06.06.09.13.01.26-.02.04-.01.1.02.09.05-.02.1-.04.15-.07-.01.08-.05.16 0 .22.07.09.15.18.23.28.04-.21.11-.37.21-.46.09.17.09.17.17-.08l.09-.27c.01-.01.03-.02.05-.02.02.02.07-.02.05.09-.03.2-.03.23.03.17.09-.1.1.09.15.14a.2.2 0 0 1-.01.21l-.12.03c-.04.01-.07.09-.05.15.04.11.05.22.06.37.01.23.05.24.19.08.02 0 .03 0 .05-.01.02-.04.04-.08.06-.11.04 0 .08-.04.1-.12.04-.02.04-.18.09-.13.03.03.04.1.08.02a.33.33 0 0 0 0-.14 3.17 3.17 0 0 0-.04-.25c.09-.09.19-.15.19-.4h.02c.07-.01.14 0 .19-.2.04-.18-.04-.23-.05-.36 0-.04 0-.07.01-.11.02-.16.11-.27.11-.44l.14.11c.03.06.06.11.09.17-.02.04-.03.08 0 .11.02.02.03.06.05.09 0 .02.01.03.01.05.02.09.07.14.06.26-.02.14-.08.1-.12.15-.02.02-.05.05-.06.09-.06.11-.08.33-.02.43.06.11.08-.07.11-.14.05-.11.1-.22.17-.17.01 0 .02.01.02 0 .05-.04.1-.07.11-.2.01-.11-.02-.14-.06-.18-.04-.05-.04-.17 0-.31.03-.12.06-.06.1-.01.05.07.08-.03.08-.12.01-.1-.02-.22.07-.22v.09c.01.06.03.11.04.17.04.16.03.21-.03.31-.01.02-.03.03-.05.05-.03.03-.07.06-.05.15.01.06.03.13.05.14.06.03.13.02.19.05.08.05.15.05.23-.09.02-.03.05-.06.07-.04.12.11.28.12.27.53 0 .05 0 .1.01.15 0 .08.03.12.06.11.03-.01.06-.06.07-.14.03-.17-.01-.36.08-.5h.05c.03.1.07 0 .1-.02.03.11.07.09.11-.02h.04c.02.03.03.06.05.1.02.03.03.06.05.09.01.11.04.16.1.16.04 0 .03.09.03.15-.1.12-.06.27-.06.42-.05.01-.1.01-.14.08-.01.02-.03.06-.03.09 0 .02.02.05.03.05.04.02.09-.08.11 0 .02.06.01.16.01.25 0 .11 0 .21.03.29 0 .03 0 .06.01.09 0 .07.01.1.04.1.02 0 .03.01.04.01v.3c.02.02.03.07.04.1 0 .08-.02.18.03.21.03-.19.05-.39.11-.55.03-.07.06-.08.08-.02.02.06.02.16.04.22.01.03.04.05.06.05.03 0 .04-.04.04-.11.01-.36.01-.36.17-.33.04.01.08 0 .12 0 .06.13.15.05.22.12.03.03.06-.03.07-.11.01-.09.02-.17.02-.26.11-.17.07-.38.07-.58.02-.04.03-.12.05-.13.11-.05.15-.22.17-.42 0-.03.01-.07.01-.1.02-.2.02-.21-.05-.15-.05.04-.1.06-.14.06 0-.12.03-.21.06-.31.03-.05.05-.11.04-.18-.01-.09 0-.17.03-.25.24-.08.48 0 .71 0 .02 0 .04.08.04.1-.03.15-.01.26.02.38.02.08-.08.16-.04.28.06-.03.13-.15.13-.24.01-.31.13-.41.22-.58.05.18.14.2.23.17.11.19.11.19.2-.03l.09.09c.03.04.06.12.09.13.13.04.25.14.38.2.08.04.14.06.17.24.01.08.09.06.1-.02.04-.22.12-.24.19-.31.01-.01.03-.05.04-.07.16.1.33-.08.5-.02.07.02.16-.1.24-.09v.1c-.02.1-.06.19-.04.3.02.09.07.12.12.11.02 0 .03 0 .05-.01.03.03.06.06.1.09.03 0 .04-.03.05-.1v-.11c.05-.01.1-.02.14-.02.08-.01.16-.02.23.06.09.11.11-.24.2-.23.05.01.11-.02.17-.03.04-.01.08-.04.11-.12.02-.04.03-.08.05-.12.07.03.13.05.2.08.01.12.17.06.07.33-.02.05.01.08.04.08h.07c.04.26.04.25.15.24.05-.01.1-.01.14-.07.08 0 .16.12.24-.04.03.1.03.24.09.3.02 0 .03 0 .05-.01.03-.04.07-.08.1-.11l.15-.03v-.11c-.01-.07-.03-.14-.04-.2.02-.03.03-.07.05-.1h.04c-.01.18.02.29.1.35.07.05.12 0 .18-.11.02-.04.04-.06.06-.09.05.11.02.32.08.41.07-.12.14-.23.21-.35.06-.07.08-.25.16-.25.01 0 .03.01.04.01-.01.21-.02.42.07.54.03.05.07.07.11.03.04-.05.05-.14.05-.23 0-.08-.02-.12-.04-.16v-.1c.01-.03.02-.06.04-.08.03-.06.08.04.11-.07.02-.09.01-.17.01-.26-.01-.08-.01-.17-.02-.25.01-.04.03-.08.04-.12.05-.18.04-.18.1-.02.08.19.09.47.13.7.03.22.09.21.18.2l.24-.03c.02 0 .03-.01.05-.01.02-.05.05-.11.07-.16.03-.07.06-.04.08.02.04.12.04.12.1 0-.01-.11-.05-.19-.03-.32.02-.01.03-.02.05-.04.02-.03.04-.08.02-.13-.01-.02-.02-.04-.04-.04-.03 0-.06.04-.08.1l.01.01s0-.01-.01-.01c-.05-.1-.09-.2-.14-.3.02-.01.03-.01.05-.02.01-.01.03-.04.03-.07.01-.06-.01-.09-.03-.1-.01-.01-.03 0-.05 0l-.03-.12c.01-.08.02-.17.07-.18.11-.02.11-.02.14-.26 0-.12.03-.23.06-.33 0-.07.01-.14.01-.21.02-.28.02-.28.17-.36.01-.01.02-.01.04-.01.05.07.09.14.14.21v.09c-.06.02-.1-.06-.14-.11-.03-.02-.04.02-.05.08 0 .07.01.13.04.16 0 .04 0 .07-.01.11-.06.09-.05.21-.06.33 0 .06.02.1.04.1.03.03.07.06.1.09.02.09.05.1.09.09l.03.42c.01.04.03.07.05.1.01.07.02.13.06.13.03 0 .04-.07.04-.12-.01-.21.07-.41.07-.62 0-.06-.01-.09-.04-.04-.02 0-.03.01-.05.01v-.1c.02-.04.04-.09.06-.13.01 0 .02-.01.03-.01.04.01.09.01.1.11 0 .07-.01.14-.01.21-.07.22-.07.23-.02.43v-.01a.28.28 0 0 0 .01-.2c0 .07-.01.14-.01.2-.03.11-.08.23-.05.34.06.25.05.54.05.82.04-.02.08-.09.11 0 .03.1.09.09.12.01.07-.15.11-.07.16.01.06.1.07.08.15-.11.03-.01.06-.01.1-.02.01.06.04.16.06.13.09-.16.21-.08.29-.29.02.03.03.07.05.1.03.11.06.1.1-.01.03 0 .06-.01.09-.01.05.11.11.15.19.09.09-.06.18-.04.26-.17.08-.15.17-.02.26-.14 0 .03-.01.07-.01.1.01.04.03.07.05.1.01 0 .02-.01.04-.01.02-.03.05-.07.05-.1.02-.13.05-.15.1-.15.03 0 .07-.06.11-.09.03 0 .06-.01.1-.01.01.07.03.07.05-.01.11 0 .2-.15.3-.27h.05c.08.08.08.07.16-.12.01-.01.02-.02.04-.03.04-.01.07-.01.11-.02.03 0 .06-.01.09-.01.1-.07.2-.11.3-.04.02.08.05.11.09.08.07.07.14.02.19-.14.03-.03.06-.06.09-.1.1-.15.11-.16.19.05.05.14.11.08.17.02.06.11.13.04.2.06.03.08.06.11.11 0 .03-.01.06-.03.09-.04.02 0 .04-.01.06-.01.01 0 .03-.01.04-.02 0 .09-.06.23.03.23.08 0 .15.09.22.14.03.02.06-.01.09-.07.15-.09.29-.03.44-.08.06.1.12.01.18-.03.07-.04.14.08.21-.04.11-.06.22-.13.33-.19.05-.03.05.03.06.1 0 .07.01.13.04.16l.09.32c.02.07.05.06.09.07-.01.06-.01.12-.02.18-.01.05 0 .09.02.11.01.07.03.07.05 0h.04c.01.03.03.07.04.1-.02.19-.04.37.06.46.03.03.04.16.06.24.07-.08.13-.15.2-.24.06-.09.06-.12.02-.33h-.04c-.01-.13.02-.29-.03-.39v-.22l.25-.37v-.1c.01-.03.01-.07.01-.1h.09c-.02.1-.03.19-.05.29.04.2.13.21.22.21 0 .07 0 .13-.01.2-.02.04-.04.08-.05.13 0 .17-.04.27-.12.32-.05.03-.1.08-.12.19v.05c0 .01.01.04.01.04.05-.04.09-.09.14-.13.04-.03.06.01.08.07v.09c0 .04-.01.08-.01.12-.04.05-.05.13-.06.22v.09c.12.13.21.12.36-.01.01 0 .02-.01.03-.03.05-.01.1-.01.14-.02.02.06.04.06.05-.02.11-.05.23-.1.34-.14.02.11.06.19.12.16.06-.02.11-.07.13-.21.01.02.02.04.03.07.04.19.04.19.12.02.02-.04.03-.08.05-.13.02 0 .03-.01.05-.03.08-.03.15.05.21.11.03.03.06.04.08-.04l.06-.09c.05-.01.1-.05.13.05.03.08.05.02.06-.06.01-.12.03-.17.09-.2s.11-.01.15.05c.02.03.04.06.05.09 0 .12-.01.25.04.33.02.04.05.07.09.04.04-.03.05-.09.05-.17 0-.13.04-.14.08-.17.06.01.12-.1.17.05.02.07.07.03.11 0 .09.03.16-.02.21-.21.04-.08.05-.16.01-.24 0-.2.07-.36.11-.53.05 0 .08.04.1.14.02.1.07.14.12.16 0 .09.01.16.04.2 0 .1-.01.2-.01.3-.01.1 0 .18.04.21v.11l.03.03c.01-.01.02-.03.03-.04.03-.1.08-.11.13-.12.05-.01.09-.02.13-.12l.12-.09c.02-.02.05-.02.05.04 0 .03-.01.07-.02.09-.02.05-.07.14-.04.16.05.03.11.13.17-.03.03-.05.06-.1.1-.14.06-.11.11-.22.17-.32.05-.08.11-.16.16-.23l-.01-.01c.04-.13.1-.13.16-.15.05.02.11.02.15-.09.05-.14.1-.29.19-.25.03.06.07.03.11.03.08.01.16-.1.23.01.01.05.02.09.02.14.02.28.03.29.14.17.1-.12.1-.12.1-.41v-.15c.05.01.12-.07.1.17-.01.17.05.08.09.01l.23-.03.01-.02c0 .01-.01.01-.01.02-.02.07-.04.14-.05.21 0 .08 0 .17.04.2.08.12.12.28.08.51.01.07.04.14.06.1.05-.14.14-.09.19-.24.04-.01.1.02.09-.16v-.25c0-.06.01-.11.04-.11.05 0 .08-.01.08-.14 0-.11.04-.2.08-.27.03-.06.07-.06.08.01.01.09 0 .23.06.24.04 0 .09-.06.14-.1.01-.01.03-.05.04-.06.06-.06.09-.02.1.11.01.11-.03.26.03.32v.08c.01.16.08.2.14.19.06 0 .13-.03.2-.05.03 0 .06 0 .09-.01.03 0 .06-.01.09.01.06.04.1.01.14-.11.02-.05.05-.09.08-.13.07-.14.16-.15.24-.15.01.06.03.11.04.17.02.13.06.12.11.02l.06-.12h-.02v-.02c.01.01.01.03.02.03.09.23.09.24.23.07.09.07.17.19.28.17.02.03.03.06.05.09l.01-.01s0 .01-.01.01c.02.03.04.05.05.08.02 0 .03 0 .04-.01.03-.01.04-.04.05-.1.05.05.06.22.13.18a.37.37 0 0 0 .05-.11c.06-.06.12-.14.19-.1.06.03.12.02.18.09.09-.14.23-.17.24-.5-.03-.06-.03-.13.01-.21.03 0 .06.01.06.09.02.2.02.2.12.2.02.01.05 0 .07.02.05.03.07-.03.08-.13.01-.09.01-.18.05-.24.06.01.12.01.11.22-.01.5-.01.5.22.48h.02c.07.13.11-.04.16-.13.01 0 .03-.01.04-.02.06-.08.06-.21.06-.33.05.06.1.05.15-.03.04-.02.1-.02.11-.07.04-.16.12-.3.11-.5 0-.11-.02-.2-.08-.15-.05.04-.11.06-.16.09-.05.01-.1.01-.15.02-.03.01-.06.01-.09.02-.06 0-.1-.05-.14-.11-.02-.03-.03-.07-.05-.1v.04c-.01 0-.01-.01-.02-.01.01-.01.01-.02.02-.03v-.09c.02 0 .03-.01.05-.01.03-.08.03-.15.01-.22v-.1s.01-.01.01-.04c.01-.03 0-.05-.01-.07v-.1c-.07-.15-.16-.11-.25.02l-.09.03c0-.07 0-.14.01-.2.05-.13.1-.25.14-.39.04-.15.11-.23.17-.3-.01.28-.04.42.13.41.02.09.05.15.09.19 0 .14.04.27-.03.43-.03.08.01.19.07.16.03-.01.06-.06.09-.09.09-.07.09-.07.1.12-.01.08-.01.16.03.18.06-.06.1-.13.07-.27-.02-.12-.05-.22-.05-.36.07-.2.07-.2.01-.32-.01-.03-.03-.06-.04-.09.01-.11.01-.21.01-.32v-.01.01c.09.12.22.04.32.12.03.02.04-.03.06-.08.04-.13.04-.23-.02-.32a.414.414 0 0 1-.04-.21c0-.15.03-.28.07-.4.01.01.03.02.04.03.02 0 .05.02.07-.01.03-.05.03-.13.02-.19a.248.248 0 0 0-.08-.17c-.03-.09-.07-.08-.11.01-.04.08-.05.18-.05.28 0 .1-.01.2-.06.27-.05-.33-.2-.49-.3-.72-.01-.02-.04.03-.07.04h-.05c.01-.28-.05-.54-.02-.83.02-.04.03-.07.05-.11.06-.01.11-.02.15-.14.06-.08.05-.27.11-.35h.1l-.01-.01.01-.01v.02c.08.13.04.36.03.56.08-.06.14-.1.2-.15.03-.02.04-.07.04-.12.02-.21-.01-.73-.06-.97l.06-.31c.02-.01.03-.02.05-.02h.14c-.02.04-.04.07-.05.11-.04.09-.04.16.01.18.03.01.06 0 .09 0 .08.16.05.43.1.65.03-.09.06-.17.09-.23.05-.09.01-.23.06-.32.05.29.05.29 0 .51-.01.05-.02.11 0 .14.05.08.05.24.12.26.04-.08.03-.17.03-.25 0 0-.01-.01-.01-.03 0-.02 0-.04.02-.07.01-.09.03-.17.03-.26 0-.21.06-.28.14-.3-.03.19.06.19.08.29-.01.08-.05.15-.04.25.05.04.08-.1.13-.13.14-.09.24-.28.3-.57.01-.06.05-.09.08-.14.01 0 .03 0 .04-.01h.1c.02.04.03.07.04.11v.1c0 .04.01.08.02.12.02-.04.03-.07.05-.11.01-.04.02-.09.04-.13.02-.08.03-.15.05-.23.08-.06.02-.26.07-.31.13-.11.11-.29.1-.51-.13.2-.26.13-.39.25-.06.05-.11-.08-.08-.21.04-.22.05-.46.12-.67.06-.08.04-.27.11-.34h.04c.03.07.06.08.1 0 .03-.07.06-.17.04-.24-.04-.16-.06-.37-.2-.3-.07.04-.14 0-.21-.01-.01 0-.02-.04-.02-.07 0-.03.02-.07.03-.08.1-.03.2-.06.29-.09.05-.21-.06-.3-.04-.5.06-.01.11-.02.16-.02.01.05.01.06.02.02l-.02-.02c.02-.1.06-.18.11-.23.03-.08.03-.15.01-.21-.02 0-.03 0-.05.01.07-.14.14-.29.11-.5-.01-.04 0-.1 0-.15.03-.47.03-.47-.16-.56-.04-.02-.09-.02-.14-.03 0-.12 0-.24.06-.32.03-.08.07-.15.11-.23.04-.04.07-.08.1-.12.04-.08.08-.15.11-.24.07-.24.13-.48.08-.74 0-.03.01-.07.01-.1.01-.01.03-.02.04-.02.09-.26.09-.26.04-.44-.02-.07-.04-.13-.07-.19-.08-.21-.16-.43-.08-.77.01-.05.01-.1-.02-.11-.11-.03-.13-.31-.23-.34 0-.1.01-.22-.03-.29-.04-.07-.02-.14.01-.22.04-.09.08-.13.13-.14-.02-.08-.03-.16-.08-.16-.09-.01-.19.14-.23.33-.02.1-.04.2-.05.3-.02 0-.03 0-.05.01-.06-.09-.07-.08-.11.13-.05.01-.1.02-.14.03-.02-.03-.03-.07-.05-.1-.01-.1-.07-.2.01-.32.03.1.06.1.1-.02l.06-.22c.01-.04.04-.08.04-.13.01-.04.01-.11-.01-.14-.03-.05-.06-.01-.08.05-.02.04-.04.07-.05.11l-.09-.09v-.21c0-.03.01-.06 0-.09-.06-.17-.11-.34-.17-.51h-.05c.02-.11.04-.22.06-.32.05-.09.1-.07.14-.03.02-.04.04-.08.05-.12.07-.1.15-.08.21-.24v-.1c0-.03 0-.07.01-.1.08-.14.06-.3.06-.45 0-.03.01-.05 0-.08.01-.07.01-.15.02-.22.04-.07.07-.14.11-.21.02-.04.03-.09.05-.13.02.01.06.01.06.04.01.09.02.16.08.09.06-.08.13-.08.18-.19.07-.14.14-.19.23-.21.05-.01.1-.04.14-.08.05-.05.05-.13.01-.19-.03.01-.06.01-.09.02-.12-.01-.18-.16-.19-.41 0-.03.01-.06.01-.09.1.05.21.12.31-.1.01-.02.05 0 .07 0 .03 0 .05-.04.05-.1 0-.05 0-.11-.01-.14-.03-.06-.07-.1-.11-.15.04-.14.05-.3.16-.25.07.04.12-.08.15-.22v-.1c-.01-.24 0-.26.08-.32.05-.03.1-.02.13-.14.05-.2.04-.44.13-.6-.02-.01-.04-.03-.06-.04-.02-.07-.06-.13-.06-.2.01-.47.04-.6.21-.95-.09-.08-.17 0-.25.1-.03-.1-.06-.2-.09-.31.02-.07.04-.14.06-.22.09.03.18.09.27-.04.02-.03.05-.02.07-.02.02-.03.04-.07.06-.1.06-.25.05-.3.01-.3zm-31-1.73s0-.01.01-.01c0 .01-.01.01-.01.02.01 0 0-.01 0-.01zm26.84 22.81c0-.01 0-.01 0 0 0-.01 0 0 0 0zm-2.2 1.19v-.02.02zm-.76 1.27c-.01 0-.01.01 0 0-.01-.01 0-.01 0-.02 0 .01-.01.02 0 .02zm-7.56-.44c0-.01 0-.03-.01-.04h.01v.04zm-4.82-.95c0-.01.01-.01.01-.02v.03c0-.01 0-.01-.01-.01zm-21.4-11.65zm13.65-9.86c-.01-.02-.01-.05-.01-.07 0 .03.01.04.01.07zm18.89-.03c0 .01 0 .01 0 0zm6.48 4.21c.01-.01.01-.02.02-.03 0 .01 0 .02-.01.03h-.01zM56.9 62.24c0-.01 0-.01 0 0 0-.01 0-.01 0 0zm-4.82.88c-.01-.01-.01-.01-.01-.02l.01.02zM26.91 44.78c0-.01 0-.01 0 0 0-.01 0-.01 0 0zm15.01-3.63c.01.01 0 .02 0 .03v-.03zm.21-.24c.01.01 0 .01 0 .02v-.02zm2.06.09s.01 0 0 0c.01 0 0 0 0 0zm13.71-1.13c0-.01.01-.01 0 0 .01 0 .01 0 .01.01-.01 0-.01 0-.01.01-.01 0-.03-.04 0-.02zm7.38-2.44v.01c-.01 0-.01-.01 0-.01-.01 0-.01 0 0 0zm.06-.16c.01 0 .01-.01 0 0 .01-.01.01-.01 0 0 .01-.01.02-.01.02-.01s-.01.01-.02.01zm.25 7.45zM64 56.63v-.02.02zm-2.23 4.85zm-28.45.46zm2.38-21.49c.01 0 .01 0 0 0 .01 0 0 .01 0 0 0 .01 0 0 0 0zm29.8 11.34c0 .02-.01.03 0 .05v-.05zM53.45 62.72zm-8.15-1.55c0-.05 0-.09-.02-.13 0 .06.01.1.02.13zM34.95 41.1zm10.19.51c0-.01 0-.01-.01-.01h.01c.01 0 0 .01 0 .01zm.45.67s0 .01 0 0c0 .01 0 .01 0 0 0 .01 0 0 0 0zm19.42-2.97v.07H65c.01-.02.01-.05.01-.07zm-.19 8.26c0 .01 0 0 0 0zm-4.05 13.99v.09c.01-.03 0-.06 0-.09zm-8.4.22c-.01 0-.01 0 0 0-.01 0-.01 0 0 0zm-17.55.4v-.03h.01c-.01.01-.01.02-.01.03zm5.53-20.76zm1.09 1.09s0-.01 0 0zm4.62-.7v.13c0-.05.01-.09 0-.13zm10.69 19.16v-.07.07zm-2.48.75h.01v.02l-.01-.02zm-7.5-.3s-.01-.01 0 0v-.02.02zm-7.79.71c.01-.01.01-.02.01-.03-.01 0-.01.01-.01.03zm-9.85.61h.01c0 .01 0 .03-.01.04.01-.02.01-.03 0-.04zm23.9-1.09c0 .01.01.02.01.03-.01-.02-.01-.03-.01-.03zm-12.49-.76c0-.02.01-.04 0-.05v.05zm-11.81-.11v-.02.02s0-.01 0 0zm3.93-18.29zm18.19-.84zm14.92.67c0-.06.01-.12.01-.18-.02.06-.02.12-.01.18zm-1.09 11.34zm-3.08 6.47s-.01 0 0 0c-.01 0 0 0 0 0zm-12.58 1.08v-.04.04zm-6.57.59s-.01 0 0 0c-.01-.01-.01-.02 0-.03v.03zm-15.11-2.96c0 .01 0 .01 0 0zm-.24-7.65s0 .01 0 0c0 .01 0 .01 0 0 0 .01-.01.01 0 0-.01.01 0 .01 0 0zm11.18-9.23s.01-.01 0 0c.01-.01.01-.01 0 0 .01-.01 0 0 0 0zm.05-.02c-.01-.01 0-.01 0 0 0 0 0-.01 0 0zm4.13 3.05zm9.64-2.18c.01 0 .01.02.01.03 0-.01 0-.02-.01-.03zm-.04.34c0 .01 0 .01 0 0 0 .01 0 .01 0 0v-.01.01c0 .01 0 0 0 0zm2.98-1.42c0-.01 0-.01 0 0 .01.01.01.02.02.02-.01-.01-.02-.02-.03-.01 0-.01 0-.01.01-.01zm.16-.13zm7.02 16.85v-.04s.01 0 .01-.01c0 .02 0 .04-.01.05zm-2.25.71c-.01-.03-.01-.07-.01-.1.01.04.02.08.04.13-.01-.01-.03-.01-.03-.03zm-25.23 1.52v-.01s.01 0 0 .01c.01 0 0 0 0 0zm-3.26-19.5s0 .01.01.01h-.01v-.01zm9.31 1.74zm16.52 16.19zm-1.73.85zm-3.05.2v-.01.01zm-18.32-2.19zm-3.87-14.7zm10.96.19zm9.26-.03s-.01 0 0 0c-.01 0-.01 0 0 0-.01 0-.01 0 0 0zm14.53-1.78s0 .01-.01.01c0-.01 0-.02.01-.01zm-10.82 1.34s0-.01 0 0zm3.26-1.05c.01 0 0 0 0 0zm.8 1.58c0-.01 0-.01 0 0 0-.07.04 0 .02 0l-.01.01-.01-.01zm2.02 12.79s0-.01 0 0c0-.01 0 0 0 0zm-.87-.29zm-2.34 2.39c0-.01 0-.01 0 0-.01-.02 0-.03 0-.03.01.01.01.02.02.02-.01 0-.01 0-.02.01zm-1.2.71c0 .01-.01.01 0 0-.01 0-.01-.01-.01-.02 0 .01.01.02.01.02zM27.58 54.1c0-.04 0-.07-.01-.11v-.03c.02.05.02.1.01.14zm6.47-10.87l-.01-.01c.01 0 .01 0 .01.01zm1.27 0v-.02c.01.01.02.02.03.02h-.03zm17.24-.61c-.01 0 1.87 1.11 1.86 1.11.02-.01-1.87-1.11-1.86-1.11zm8.3.38s.01 0 0 0c.01 0 0 0 0 0zm3.54-.87c0 .02-.01.05-.01.07 0-.02-.01-.04-.01-.07 0 .01 0 .02.01.02 0 0 0-.02.01-.02zm-33.25 1.44v.01h-.01s0-.01.01-.01zm17.93 2.17h.01c0 .01-.01.01-.01.02v-.02zm6.22-2.92s0-.01 0 0c0-.01 0 0 0 0zm3.58 11.33c0-.01-.01-.02 0-.04v.04zm-17.15 2.67s-.01 0 0 0c-.01 0-.01 0 0 0-.01 0 0 0 0 0zm-12.08 2.87v-.01.01zm6.79-12.72l.01.01c0 .01 0 .02-.01.04v-.05zm9.61.09c0 .01 0 .01 0 0 0 .01 0 0 0 0zm9.38-2.46c0 .01 0 .02.01.02h-.01v-.02zm.12-.46v.01c.01 0 0 0 0-.01zm4.24.19c.01-.01.01 0 .01.01-.01 0-.01.01-.02.01 0-.01.01-.01.01-.02zm4.22.61v.01s-.01-.01 0-.01c-.01 0 0 0 0 0 0-.01 0 0 0 0zm-.05 0s0 .01 0 0c0 .01 0 .01 0 0zm-.75 7.78v-.03s.01 0 .01-.01c0 .01 0 .02-.01.04zm-24.56 5.25c0-.01 0-.01 0 0 0-.01 0-.01 0 0 0 0 0-.01 0 0zm-6.98-12.29c-.01-.01 0-.05.02-.1-.01.04-.01.08-.01.12-.01 0 0-.01-.01-.02zm25.11-.61zm0 0l-.01.01c0-.01 0-.02.01-.03v.02zm4.52 10.56zm-3.64-.01c0-.02-.01-.04-.02-.05v-.01.01l.01.01c0 .01.01.02.01.04zm-3.16 3.14c-.01.03-.01.06-.01.09-.01-.02-.01-.05.01-.08v-.03.02zM29.28 55.4v-.04c.01.02.01.02 0 .04zm2.07-11.74s-.01 0 0 0c-.01.04-.01.08-.01.12 0-.04.02-.09 0-.12v-.01l.01.01zm5.27 12.91zm2.22-11.04s0 .01 0 0c0 .01 0 0 0 0zm-9.49 2.15c0-.07 0-.14-.01-.2.02.07.04.13.01.2zm12.51.55c0 .02.01.02.01.03-.01-.01-.01-.01-.01-.03zm.76-1.93s0 .01 0 0c0 .01 0 .01 0 0 0 .01 0 0 0 0zm-.26 3.11v.01h-.01c0-.01.01-.01.01-.01zm2.76-2.01s-.01 0 0 0c-.01 0 0 0 0 0zm.21 1.06v.02l-.01-.01.01-.01zm-16.76 2.62s-.01 0 0 0zm6.86-4.37c0-.01 0 0 0 0zm-5.53 7.65c0-.01 0-.01 0 0 0-.01 0-.01 0 0 0-.01 0 0 0 0zm8.07-4.43c-.01.03 0 .07-.02.1l-.03-.09c.02-.01.03-.01.05-.01zm1.57 1.48c0 .02 0 .03.01.04-.01-.01-.02-.02-.01-.04zm.1.03c0 .01 0 .01-.01.01 0-.01.01-.01.01-.01s-.01 0 0 0v-.02.02zm-1.91-1.18s0 .01.01.02h-.01v-.02zm.44 1.09c.01.01 0 .01 0 .02v-.02zm2.34-1.03v.03s-.01 0-.01-.01.01-.01.01-.02zm-1.17-1.38zm-10.4-1.51s0-.01 0 0c0-.01 0-.01 0 0 0-.01 0 0 0 0zm.19 3.12zm.17.74c-.01 0-.02 0-.03-.01.01 0 .02 0 .03.01zm2.16-.25c0-.01-.01-.01 0 0v-.02c0 .01-.01.01 0 .02zm-.31.15zm-.8-2v.01s-.01 0 0-.01c-.01 0 0 0 0 0zm-.44.08s0-.01 0 0c0-.01 0-.01 0 0zm-.78 1.28zm2.32.46c0-.01-.01-.01-.01-.02v-.02c.01.01 0 .03.01.04zm-1.88-1.9zm-.39-.12zm.72 4.09v-.01s.01 0 0 .01c.01 0 .01 0 0 0zm-.95-4.39c.01 0 .01 0 0 0 .01 0 .01 0 0 0 .01.01 0 .01 0 0 0 .01 0 0 0 0zm.85 4.62zm.18-.96v-.02h.01c0 .01 0 .01-.01.02zm.93 1.21zm1.21-1.04zm.46-1.81c.02-.04.02-.08.01-.12 0 .04-.01.08-.01.12zm-.46 1.8c0 .01 0 .01 0 0 0 .01 0 .01 0 0 0 .01 0 .01 0 0zm2.34.27zm.84-2.88zm.18-.65v-.01.01zm.77 2.73zm-.38-.49c.03-.1.04-.2.01-.3 0 .1 0 .2-.01.3zm.06.01c0-.01 0-.01 0 0v-.01.01zm-3.22-1.62c.01 0 .01 0 0 0 .01 0 .01 0 0 0 .01 0 .01 0 0 0zm-1.06 1.63c0-.07.01-.1.03-.11-.01.04-.03.07-.03.11zm-.56-2.62c.01-.01.02-.01.03-.01-.01 0-.02.01-.03.01zm-1.86.04zm-.7 3.1zm.38.05c.01 0 0 .01 0 .02v-.02zm.79 1.38v-.03.03zm2.43 1.1c0 .04 0 .09.01.13a.199.199 0 0 1-.01-.13zm1.44-2.71s0-.01 0 0c0-.01 0 0 0 0zm4.33.3v-.01.01zm1.61 3.54h.01c0 .01 0 .01-.01.02v-.02zm.21-1.41v.02l-.01-.02c.01 0 .01 0 .02-.01-.01 0-.01.01-.01.01zm.21-1.62zm-1.07-5.02s-.01 0 0 0c-.01 0-.01 0 0 0zm-1.81 2.41c0 .01 0 .01 0 0zm-1.64-1.65zm-.65 1.04c0-.01 0 0 0 0zm-.28-.91zm-5.87 2.52l.01.03c-.01-.01-.01-.02-.01-.03zm1.29 3.3zm1.08-.1v-.07h.01c-.01.02-.02.05-.01.08v-.01zm8.15 1.5h.02c-.01.03-.01.06-.02.08v-.08zm1.93-1.89zm-1.22-6.37v-.1c-.01.04 0 .07 0 .1zm-3.16 2.19v-.01.01zm-2.7-1.51v-.02.02zm-2.85-.15zm-2.41 5.36zm6.05 1.1v.1c0-.03-.01-.06 0-.1zm4.21 1.4v.02c-.01 0-.01.01-.02.01 0-.01.01-.02.02-.03zm3.5-.8c0-.05.01-.1.02-.11-.01.04-.02.07-.02.11zm.79-.02c-.01.03-.02.05-.01.08 0-.02 0-.05.01-.08zm2.05-5.48c0 .01.01.01.01.02l-.01-.01v-.01zm-.45-2.04c-.01 0-.01 0 0 0v-.02c-.01 0 0 .01 0 .02zm-2.73-1.59s.01.01 0 0l.02-.02v.02c0 .01-.01 0-.02 0 0 .01 0 .01 0 0 0 .01 0 .01 0 0zm-5.11-.44v-.01h.01l-.01.01zm-3.5 1.88c0 .01.01.02.01.03 0 .01-.01 0-.01-.03zm-4.3-.88v-.03.03zm-.44 1.23c0 .01 0 .01 0 0 0 .01 0 .01 0 0 0 .01 0 .01 0 0zm-.3-.9zm-.08 4.36c.01 0 0 0 0 0 0 .01 0 0 0 0zm1.63 4.69c0-.12.01-.24.02-.36-.05.13-.06.25-.02.36zm1.36.31zm4.26-.32v.01c-.01-.01-.01-.01 0-.01-.01-.01-.01 0 0 0zm1.54-.78zm1.09.73c-.01-.02-.01-.05-.02-.08.01 0 .02.04.02.08zm4.68.39v-.02.02zm.39-8.86c0-.01 0-.01 0 0 0-.01 0-.01 0 0 0 0 0-.01 0 0zM40 46.05c-.01-.01-.02-.03-.03-.04.02 0 .03.01.03.04zm-5.14 1.59c-.01 0-.01 0 0 0v-.03c0 .01-.01.02 0 .03zm-3.41-.29c.01.02.02.03.03.05a.219.219 0 0 1-.03-.05zm-1.05-1.96zm-1.71 1.1c.04-.1.04-.19.01-.28 0 .09-.01.19-.01.28zm-.5 4.15c.01-.03 0-.05.01-.08-.01.02-.01.05-.01.08zm.93 5.02c.01 0 .01 0 0 0zm6.53.3v.02h-.01c.01 0 .01-.01.01-.02zm.31-.25s0 .01 0 0c0 .01 0 .01 0 0 0 .01 0 0 0 0zm1.26-.08c.01.01.02.02.01.04 0-.02-.01-.03-.01-.04zm2.04 2.95zm1.37-2.64c.02-.07.03-.14.01-.21 0 .07 0 .14-.01.21zm2.68-.11c0-.02 0-.04.01-.06 0 .02 0 .03.01.05-.01.01-.01.01-.02.01zm11.34 2.7c.01 0 .01.01 0 .01v-.01zm-4.96-4.45zm-1.59-6.73zm10.31.59h.02c-.01.02-.01.04-.02.05v-.05zm2.46 2.94l.01-.01c.01 0 .01.01-.01.01zm-.23.41v-.01.01zm2.11-4.12c0-.01-.01-.01-.01-.02 0 .01.01 0 .01.02zm-8.34 9.76zm5.43-7.63c.01.01 0 .02 0 .02v-.02zM59 50.59zm-11.16 3.25c.01 0 0 0 0 0zm4.91.71zm2.24-5.01zm-.05 1.27c.01 0 .01 0 0 0 .01 0 .01.01 0 0 0 .01 0 0 0 0zm-4.15-2.41zm4 3.71zm-2.33-1.65c.01 0 .01 0 0 0 .01 0 0 0 0 0zm-.9-.59s.01 0 0 0c.01 0 0 0 0 0zm2.29 2.81v.09c-.01-.01-.01-.04-.02-.07 0-.01.01-.01.02-.02zm-.51-4.58zm-1.66 1.23c0-.01 0-.01 0 0 0-.01 0-.01 0 0 0-.01 0-.01 0 0zm2.45 4.53s0-.01 0 0c.01-.01.01 0 0 0zm.66-1.76c0 .01 0 0 0 0zm-3.11-2.78zm-.89-.64l.01.01-.01.01h-.01c.01-.01.01-.01.01-.02zm2.46 5.79c-.01 0-.01.01 0 0-.01.01-.01 0 0 0-.01 0-.01 0 0 0zm-.21-7.38zm-.24 1.09zm-.1 1.21s0-.01-.01-.01c.01 0 .01 0 .01.01zm-.45 2.92zm3.1.55c0 .01 0 .01 0 0zm1.69-.79c0-.01.01-.01 0 0 .01 0 0 0 0 0zm.32-.47zm-.07 1.49c0-.01.01-.01.01-.02 0 .01 0 .01-.01.02zm.01 0zm-4.54 1.24h-.01l.01-.01v.01zm.04.21zm2.12-.65l-.01-.01c.01 0 .01 0 .01.01zm-.72-4.13c.01 0 .01 0 0 0 .01.01 0 .01 0 0zm-.22-.38c-.01 0-.01 0 0 0-.01 0-.01 0 0 0-.01 0-.01 0 0 0zm-5.36 3.38c0 .01 0 .01 0 0 0 .01 0 .01 0 0zm-1.18-.58l.03-.06c-.02.02-.02.04-.03.06zm5.33 2.79c.01 0 .01 0 0 0zm.05 1.26c.01-.01 0-.01 0 0zm2.2-2.35zm3.03-1.28c-.01 0-.02 0-.03-.02l.06-.09v.04c0 .02-.02.07-.03.07zm.17-2c0 .01 0 .01 0 0 0 .01 0 .01 0 0 0 .01 0 .01 0 0zm0 .01c.02.05.02.09.01.12 0-.04 0-.08-.01-.12zm-5.53-4.73zm-1.31-.1v-.01.01zm-3.67 7.65c0 .01 0 .01 0 0 0 .01 0 .01 0 0zm.14-.84c.01.04.01.08.02.12.01-.04.02-.08.02-.11-.02.05-.02.1-.03.16 0-.07 0-.13-.01-.17zm.58 0c0 .01 0 .01 0 0 0 .01 0 .01 0 0zm1.69.34c0 .01 0 0 0 0zm.27-.35s0 .01-.01.01l.01-.01c-.01.01 0 0 0 0zm-.01.01c0 .01 0 0 0 0 0 .01 0 .01 0 0 0 .01 0 .01 0 0zm.32-.68c0 .01.01.02.01.02-.01 0-.01.01-.02.01.01-.01.01-.02.01-.03zm1.29.85c-.01.01 0 .01 0 0zm1.13 3.13c0 .02 0 .03.01.05 0-.02-.01-.04-.01-.05zm.25.24c0 .01 0 .01 0 0 0 .01 0 .01 0 0 0 .01 0 .01 0 0 0 .01 0 .01 0 0zm.88-1.4c.01 0 .01.01 0 0 .01.01 0 .01 0 0 0 .01 0 .01 0 0zm1.1-.6c0 .01 0 .01 0 0 0 .01 0 0 0 0zm.59.02zm.83-.13c0-.01 0-.01 0 0zm1.35-.94v-.07c.01.03 0 .05 0 .07zm.36-4.09c.01.01 0 .01 0 .02v-.02zm-2.56-.77c0 .01.01.01 0 0zm-.82 0v.01c-.01-.01-.01-.01 0-.01-.01 0-.01 0 0 0zm-3.63-2.27zm-1.61 2.6s.01-.01.02-.01c-.01.03-.01.05-.02.08a.085.085 0 0 1 0-.07zm-.71.64zm-.73 1.03v.04l-.01-.01c0-.01.01-.02.01-.03zm-.89 3.99c.01 0 .01 0 0 0 .01-.01.01 0 0 0 .01 0 .01 0 0 0zm4.17.9v.02h-.01c.01 0 .01-.02.01-.02zm1.91 1.21zm1.05.46zm3.75-3.76zm1.03-3.32c.01-.02.01-.05.03-.07.01.01.02.03.03.04-.02 0-.04.02-.06.03zm3.63-1.97zm-.7-.63zm-.65 1.59zm-.1-.1c0-.01.01-.01.01-.02 0 .01 0 .02-.01.02.01 0 0 0 0 0zm-2.35-1.23c0 .01 0 .03-.01.04.01-.02.01-.03.01-.04zm-11.25 6.98zm3.93.65zm9.39-8.08c.01 0 .01 0 0 0 .01 0 .01 0 0 0zm-2.16.37h-.01s.01.01.01 0zm-4.31.58c-.01 0-.01 0 0 0-.01 0-.01 0 0 0-.01 0-.01 0 0 0zm-5.63.05c.01-.06.03-.13.01-.19 0 .06 0 .13-.01.19zm-1.7 7.25c.01.01 0 .01 0 .02v-.02zm3.65-.79v-.02c0 .01.01.01 0 .02.01 0 0 0 0 0zm4.63.48h.01s0 .01-.01.02v-.02zm.62.27zm5.74-1.92v-.04.04zm-.44-5.63v-.07c.01.02 0 .04 0 .07zm-.07-.27v-.05c.01.02 0 .03 0 .05zm-.25.26c0-.01 0-.02.01-.03-.01.01-.01.02-.01.03zm-4.01.17c.02-.02.04-.04.06-.02-.02 0-.04.01-.06.02zm-3.04.21v-.04l.01.01c0 .01 0 .02-.01.03zm-.53-2.42l.01.01s-.01 0-.01-.01zm-3.73 1.51zm-3.3 7.06v.03c-.01 0-.01 0-.02-.01.01-.01.01-.02.02-.02zm.84 2.08s.01 0 0 0zm4.99 1.16v-.01.01c0-.01 0-.01 0 0zm6.5-4.03c0 .03-.01.06 0 .09v-.09zm1.32-1.14zm2.75-3.08zm-2.15-1.24s0-.01 0 0c0-.01.01-.01 0 0 .01-.01.01 0 0 0zm-1.79-1.52zm-2.81-.51s-.01 0 0 0v-.02.02zm-9.15 2.87c0-.01 0-.03-.01-.03.01-.01.01 0 .01 0v.03zm-.02.25zm-.47 2.22c.01 0 .01 0 0 0 .01 0 .01 0 0 0 0-.01 0-.01 0 0 0-.01 0-.01 0 0zm1.03 5.34c-.01 0-.01 0 0 0-.01 0-.01-.01-.01-.01s.01 0 .01.01zm1.84-2.41s0 .01 0 0c0 .01 0 0 0 0zm.64-.1c0 .01-.01.01-.01.01s0-.01.01-.01c-.01 0 0 0 0 0zm.84 2.4c-.01 0-.01-.01-.01-.03.01.01.01.02.01.03zm1.57 1.03zm5.54-1.94zm.3-1.57c-.01.01-.02.01 0 0-.01 0 0 0 0 0zm4.29-2.33c.01 0 .01 0 0 0 .01 0 0 0 0 0zm.63-7.51c0 .01.01.03 0 .04v-.04c0-.01 0 0 0 0zm-7.07 1.34c.01-.01.03-.01.03 0s.01.02.01.03c-.01 0-.02-.02-.04-.03zm-4.61-.97c-.01-.04-.01-.09-.02-.13-.02.03-.02.07-.02.11l.03-.15c-.01.06-.01.12.01.17zm-.87-.18zm-.06.14v-.02h.01s-.01.01-.01.02zm-4.26 6.2s-.01.01 0 0c-.01.01-.01 0 0 0zm-2.61-2.58c0 .01 0 .01-.01.02 0-.01 0-.01.01-.02zm-8.98-2.62c-.01 0 0 0 0 0zm-6.55 1.46zm.79 8.46v-.02h.01c0 .02-.01.02-.01.02zm1.2 1.92s0-.01 0 0c0-.01 0-.01 0 0 0-.01 0-.01 0 0 0-.01 0-.01 0 0 0-.01 0 0 0 0zm1.68 1.83c.01-.05.02-.1.01-.14 0 .04-.01.09-.01.14zm7.14-.37c.01 0 0 0 0 0 .01-.01.01-.01 0 0 .01-.01.01-.01 0 0 .01 0 0 0 0 0s0 .01 0 0v-.03c.01.01.01.02 0 .03.01-.02.01-.02.01-.03 0 .02 0 .03-.01.03zm5.14-5.26v-.03c.01.01 0 .02 0 .03.01-.01 0 0 0 0zm6.72 2.96zm6.04-.66s0 .01 0 0v-.02.02zm6.73-7.61zm-4.49-3.73v-.01c.01.01.01.01 0 .01zm-2.21.61zm-.12 1.56s0-.01 0 0c0-.01 0 0 0 0zM53 44.35h.02H53zm-3.74.59zm-1.57 1.63zm-.91 1.11zm-.02 1.36zm-2.99-1.01zm-.11-.72c-.01.04-.01.07-.01.11 0-.04.01-.07.01-.11 0-.01 0 0 0 0zm-1.98.13c-.01.01-.01.01 0 0-.01.01-.01 0-.02 0 .01.01.01 0 .02 0zm-2.25-1.53h.02-.02zm-1.89-.8c0-.01 0-.01 0 0 0-.01 0 0 0 0zm-.76-.6zm-1.69-.27zm-.32.46c0-.01 0-.01 0 0 0-.01 0-.01 0 0 0-.01 0-.01 0 0zm0-.01s0 .01 0 0v-.01.01zm-6.21 1.53c-.01 0-.01 0 0 0-.01 0-.01-.01-.01-.01l.01.01zm-.09 2.42v.02h-.01c0-.01 0-.02.01-.02zm-.65 4.14zm7.97 4.45c0-.01 0-.01 0 0 .01-.01.01-.01 0 0 .01 0 .01 0 0 0 .01 0 0 0 0 0zm2.71.95zm.57.33zm5.2-3.15zm7.88 3.3zm.99.11c0-.01 0 0 0 0 0 .01 0 .01-.01.02 0-.01 0-.02.01-.02zm.18-.19zm1.86-1.2c.02 0 .04.02.07.06.02.03.04.06.05.1a.44.44 0 0 0-.12-.16zm2.46-.44c0 .01 0 .01 0 0 0 .01 0 0 0 0zm.69.75c-.01-.01-.02-.02-.02-.06.01.01.02.03.02.06zm5.72-8.88v-.03c0 .01.01.02.01.03h-.01zm.03-4.11c-.01 0-.01.01 0 0-.01.01-.01.01 0 0-.01-.01 0-.01 0-.02 0 .01-.01.02 0 .02zm-7.92-.01c0 .01 0 .01 0 0zm-1.58.06s.01-.01.01-.02c0 .01 0 .01-.01.02.01 0 .01 0 0 0zm-.23 1.06c.01 0 .01 0 0 0 .01.01.01 0 0 0zm-5.22-.07v-.03c0 .01-.01.02 0 .03zm0 0c-.01 0-.01 0 0 0-.01 0-.01 0 0 0-.01 0-.01 0 0 0zm-2.24.84c.01 0 0 0 0 0zM36.6 44.51c0 .01 0 .01-.01.02 0-.01 0-.01-.01-.01.01-.01.01-.01.02-.01zm-3.18.92c.01 0 .01 0 0 0 .01 0 0 0 0 0zm-1.7-.12zm-.35-2.41c.01 0 .01-.01 0 0 .01-.01.01-.01 0 0 .01 0 .01 0 0 0zm7.12 15.27c.01.01.01.01 0 0 .01.01.01.01 0 0 .01.01.01.01 0 0 .01.01 0 .01 0 0zm7.69-2.9zm4.95 3.24c-.02.03-.02.08-.03.12.01-.03.02-.07.03-.12zm2.16.83s.01 0 .01-.01c0 .01 0 .01-.01.01zm.12-.56s0 .01 0 0c0 .01 0 0 0 0zm9.58-4.05c.01-.01.01-.01 0 0 .01-.01.01-.01 0 0l.01.01s0-.01-.01-.01zm-1.47-9.82zM56.63 44c0-.05.02-.09.03-.12l-.03.12zm-1.27-1.3s0 .01 0 0c0 .01 0 .01 0 0zm-.06.12zm-.51.72c0 .05.01.1 0 .15v-.15c-.01 0 0 0 0 0zm-3.71 1.16c0-.01 0-.01-.01-.02l.01-.01v.03zm-.28.56c0-.01 0 0 0 0zm-.34.09c-.01-.01-.01-.01 0 0-.01-.01 0-.01 0 0 0-.01 0-.01 0 0zm-1.04.34c-.01-.01-.01-.01-.01-.02l.01-.01v.03zm-2.82.15l-.02.02.02-.02zm-.06-.05v-.11c0-.01.01-.01.01-.02-.01.06-.01.1-.01.13zm-3.16-.25c0 .02-.01.04 0 .06h-.01v-.02c.01-.02.01-.03.01-.04zm-2.02.23v-.01c.01 0 0 .01 0 .01zm-1.13-1.07s-.01 0-.01.01v-.02s.01 0 .01.01zm-12.2 2.65zm-.09 4.55s.01 0 0 0c.01 0 .01 0 0 0zm1.47 6.34s0 .01 0 0c0 .01 0 .01 0 0zm1.43 1.04c-.01.03-.02.07-.01.1 0-.03.01-.06.01-.1zm1.06.36s-.01 0 0 0zm7.16.45c0 .01 0 .01 0 0zm6.1-7.52c0 .01 0 .02.01.02h-.01v-.02zm4.9 3.36c0-.01 0-.01 0 0zm1.67 3.44c0-.01 0-.01 0 0v-.01c.01 0 .01 0 0 .01zm1.69-.59zm5.48-3.63c-.01 0-.02-.02-.03-.05.01.02.01.04.03.05zm4.45-3.12v-.02.02zm.38-1.12c.01 0 .01 0 .01.01s-.01.01-.01.02v-.03zm-.97-7.68v-.02.02zm-4.7.64c0-.01 0 0 0 0zm-.62.27s0 .01 0 0c.04-.02-.01.07-.01.09v-.03c0-.02 0-.04.01-.06zm-2.37-2.92c-.01-.01-.01-.01-.02-.01l.01-.01c0 .01.01.01.01.02zm-1.1 2.58c.01 0 .01.01 0 0 .01.01 0 .01 0 .01.01 0 .01 0 0-.01zm-1.01.06zm-9.01.68zm-3.23.1s-.01 0 0 0v-.02.02zm-3.52-.97c.01 0 .01.01 0 0 .01.01.01.01 0 0 0 .01 0 .01 0 0zm-.92-.05zm-.91-.4v.11c.02.01.03.01.04.02-.01 0-.02 0-.04-.02 0-.04.01-.07 0-.11-.01 0-.01 0 0 0v-.01.01zm-.68 1.06h-.01c.01-.02.01-.05.01-.07v.07zm-4.99-.9c-.01 0-.01 0 0 0-.01 0-.01 0 0 0-.01 0 0 0 0 0zm-1.85 8.65c-.01 0-.01 0 0 0v-.02.02zm-.44.18v-.03.03zm-.06 1.19zm-.41 2.53c0-.01.01-.02.01-.03v.01c-.01.01-.01.02-.01.02zm-.2.73zm.68-.56zm3.41 3.29l.01.01v.01s0-.01-.01-.01v-.01zm.04.3zm1.4.42s0 .01-.01.01l.01-.01zm0 .22v.01-.01zm.6-1.81zm.33-.86v-.02h.01c0 .01-.01.02-.01.02zm1.26-.16zm3.07 1.57zm6.58-2.2c.01 0 .01 0 0 0 .01 0 .01.01.01.01s0-.01-.01-.01zm3.61 1.33c0 .01-.01.02-.01.02v-.03l.01.01zm2.28.4v-.02l.01.01-.01.01zm4.17.8zm.88-.01v-.02s0 .01.01.01c-.01 0-.01.01-.01.01zm.74-1.38s-.01-.01 0 0v-.03.03zm.15 1.11zm1.25-.72c0-.01 0-.01 0 0 0-.01 0-.01 0 0v.01c-.01-.01 0-.01 0-.01zm6.34-4.68c.01 0 0 0 0 0zm-.06-2.22c0-.01 0-.02-.01-.02h.01v.02zm-2.75-8.37l.02.02s-.01 0-.02-.02zm-8.18 1.54zm-.66-.64zm-2.49 1.13c0-.02.01-.04.01-.05 0 .02.01.03.01.05h-.02zm-1.54.88c-.01 0-.01 0 0 0-.01 0-.01 0 0 0 0 .01 0 0 0 0zm-2.58-1.69v-.01l.01.01h-.01zm-5.2-.47zm-2.6.38zm1.1-.88c-.01-.01-.01-.02-.01-.03.01.01.01.02.01.03zM27.9 49.39s0-.01 0 0c0-.01 0-.01 0 0zm.79 10.02c-.01.02-.01.04-.01.07 0-.02 0-.05.01-.07-.01 0 0 0 0 0zm.45 1.1c-.01.01-.01.01 0 0zm2.75-.85l.01-.01c-.01 0-.01 0-.01.01zm.37.68v.02c-.01 0-.01 0 0-.02-.01 0-.01 0 0 0-.01 0-.01 0 0 0zm1.56-2.37v.01c-.01 0-.01-.01 0-.01-.01 0 0 0 0 0zm4.48 1.29c.01.01.01.01 0 0 .01.01 0 .01 0 0 0 .01 0 .01 0 0zm.28.4zm3.15-.5v-.02.02zm2.07-1.72zm1.87-1.13v-.02.02zm1.66 2.04c0 .01 0 .01 0 0 0 .01 0 .01-.01.01.01 0 .01 0 .01-.01zm4.16.94c.01.02.01.03.02.04-.01 0-.01 0-.02.01v-.05zm.81.42c0 .01 0 .02-.01.03.01-.02.01-.03.01-.03zm.92.37c0 .01 0 .01 0 0 0 .01 0 .01 0 0zm.92.08zm.04-.12c0-.02.01-.04.02-.05-.02.04 0 .06 0 .09v-.02c-.01-.01-.02-.01-.02-.02zm.87.7zm2.27-1.94zm4.77-.86c0-.01 0-.02.01-.03v.02l-.01.01zm2.32-11.88v-.02h.01c-.01.01-.01.02-.01.02zm-.02-5.95v-.02.02zm-1.04 1.67v-.03.03zm-14.63 2.94s0-.01 0 0c0-.01 0-.01 0 0zm-5.16-1.42v.02h-.01c.01-.01.01-.01.01-.02zm-1.15 1.91zm-9.3-1.46v-.02.02zm-2.61-.93zm-.17.58v-.01.01zm-3.68 10.74c0-.01 0-.01 0 0v-.01.01zm-.29 2.37s-.01 0 0 0c-.01 0 0 0 0 0zm.48 2.18a.32.32 0 0 0-.03.14.29.29 0 0 0 .03-.14zm1.77.21zm.66.54zm6.21.9s.01 0 0 0c.01 0 0 .01 0 0 0 .01 0 0 0 0zm.9-.33s.01-.01.01 0c-.01 0-.01.01-.01.02v-.02zm1.05-.92c0 .01.01.02 0 .03v-.03zm9.72-.76c.01 0 .02.04.03.06-.01-.03-.02-.04-.03-.06-.01 0 0 0 0 0zm1.42.69zm.23.6c-.01 0-.01 0 0 0-.01-.01 0-.01 0 0zm6.22 1.66c.01 0 .01 0 0 0 .01 0 .01 0 0 0zm2.73-2.34zm.34.16c-.01.02-.01.05 0 .07v-.07zm4.53-2.3c0-.01 0-.01 0 0 0-.01 0-.01 0 0 0 0 .01 0 0 0 .01 0 0 0 0 0zm1.36-2.84c.01.01.02.01.02.01v.01c-.01-.01-.02-.01-.02-.02zm1.01-12.88zm-1.78.59c0 .01 0 .01 0 0 0 .01 0 .01 0 0 0 .01 0 .01 0 0 0 .01-.01.01 0 0-.01 0 0 0 0 0zm-2.74.33c-.01 0-.01 0 0 0v-.02.02zm-.18.56zm-2.12-.3h-.01c0-.01.01-.02.01-.03v.03zm-7.07 1.57v-.02s.01.01 0 .02zm-2.1 0zm-.47-.29zm-.64-.11zm-16.51-2.11zm-1.04 1.95s-.01 0 0 0v-.02.02zM27 54.81zm3.23 6.26v-.02.02zm7-.16zm.53-.09zm.96-.7v.03s0-.01-.01-.01c.01-.01.01-.02.01-.02zm.04.08v-.06.06c0 .01 0 0 0 0zm4.03-.46c.01.03.03.06.04.08-.01-.04-.03-.06-.04-.08zm3.05-2.09c0 .01 0 .01 0 0zm.02 1.88v.02s-.01 0-.01-.01c.01 0 .01-.01.01-.01zm2.27-.44zm4.09 1.57zm.87.6s0 .01 0 0c0 .01 0 0 0 0zm6.93-2.74s.01 0 0 0c0 .03 0 .07-.01.09 0-.03.01-.06.01-.09zm3.87-5.42zM56.7 40.78zm.8.45c-.01 0-.01-.01-.01-.01.01 0 .01.01.01.01zm-3 .98zm-1.87 1.39v-.01c.01.01.01.01.02.01-.01-.01-.02-.01-.02 0zm-.16.33v.01c-.01 0-.01-.01 0-.01-.01 0-.01 0 0 0zm-1.02-1.42l.01-.01v.03c-.01-.01-.01-.01-.01-.02zm-4.48 1.04c0-.01-.01-.01 0 0-.01-.01-.01-.01 0 0 0-.01 0-.01 0 0 0-.01 0-.01 0 0zm-3.65-.42v.01h-.01l.01-.01zm.13.31c-.01.08-.03.15-.01.23h-.01c.02-.07.03-.15.02-.23zm-2.66-.52s0-.01 0 0c0-.01 0 0 0 0zm-3.12-.74zm-6.34-1c0 .01.01.02.01.03h-.02c0-.01.01-.02.01-.03zm-1.34 2.03s0-.01 0 0c0-.01 0-.01.01-.01-.01 0-.01 0-.01.01zm-.64-.12c0 .01 0 .01.01.02h-.01v-.02zm-2.01 15.69zm3.39 2.1c0 .01 0 .01 0 0zm1.13.87zm.76-.11s0 .01 0 0c0 .01 0 0 0 0zm.69-2.01s0 .01 0 0c0 .01 0 0 0 0zm9.96.12zm3.24-.73l.01.01-.01-.01c0-.01 0-.01 0 0zm1.27 1.39zm.14-.97c.02-.04 0-.07 0-.1v.1zm1.61 1.21zm1.17-1.22zm.55 1.07zm.97.16v.01s-.01 0 0-.01c-.01 0 0 0 0 0zm9.06-1.01s.01-.01 0 0c.01-.01 0 0 0 0 .01 0 0 0 0 0zm.81-.49v-.05.05zm2.66-6.49c-.01.05-.01.09-.01.14-.01-.05 0-.1.01-.14zm.22 1.11v-.03.01c.01.01 0 .01 0 .02zm.06-3.61zm.39-10.2v-.01s.01 0 .01-.01c0 0 0 .01-.01.02zm-.33.98s0-.01 0 0c0-.01 0-.01 0 0zm-5.42.97c0-.01.01-.01 0 0 .01-.01 0-.01 0 0zm-.17-.19c-.01 0-.01 0 0 0zm-1.19-.76zm-1.27-.12c-.01.01-.01.02-.01.03v-.05c0 .01.01.01.01.02zm.57.26c.01-.02 0-.04 0-.06v.06zm-11.6 1.96c0-.04.02-.07.04-.08-.02.02-.03.05-.04.08zm-2.36-.81c.01-.01.01-.02.02-.03 0 .02-.01.03-.02.03zm-5.38-.27c0 .01-.01.02-.01.02V42c.01 0 .01-.01.01-.01zm-.05.36v.01c0-.01 0-.02.01-.03-.01.01-.01.01-.01.02zm-.11.46c0 .01 0 .01 0 0-.01.01-.01.01 0 0 0 .01 0 .01 0 0zm-.47-.44v-.01.01zm-6.49-1.34zm-3.43 4.25c.01.01.01.02 0 .04v-.04zm-.58 5.93c0-.01 0-.01 0 0 0-.01 0-.01 0 0zm-.92 3.56v.02c-.01 0-.01.01-.02.02v-.02c.01-.01.01-.02.02-.02zm-.05.3c0 .01 0 .01 0 0 0 .01 0 .01 0 0zm-.3 1.18c0 .01 0 .01 0 0 0 .01 0 .01 0 0 0 .01 0 0 0 0zm1.41 2.66zm.06-.13zm1.71 2.48zm1.29.64zm3.8-1.27s0-.01 0 0c0-.01 0 0 0 0zm13.64-.22c.01 0 .01 0 0 0 .01 0 0 .01 0 .01v-.01zm.77-.36c-.01.03-.01.06-.02.1 0-.04.01-.08.02-.1zm1.5.83c.02-.02.01-.02.01.01l-.01-.01zm1.34-.19zm.78-.02s0 .01 0 0c0 .01 0 .01 0 0zm2.3.92h.01v.03c0-.01-.01-.02-.01-.03zm1.03-.36v.02s0 .01-.01.01c.01-.01.01-.01.01-.03zm3.92-2.55c.01-.04.02-.08.04-.11-.01.03-.02.07-.04.11zm.35.63c.01-.02.03-.04.04-.07-.01.03-.02.06-.04.07 0 .01 0 0 0 0zm2.41-.13v-.02.02zm.01-.09l-.01-.02c.01.01.01.02.01.02zm1.3-3.39c0 .01 0 .01 0 0zm.94-1.43v-.02h.01c0 .02-.01.02-.01.02zm-1.38-13.53zm-4.76-.51zm-.35 1.05v-.03l.01.01s0 .01-.01.02zm-4.75.33c-.01 0-.01 0 0 0 0-.01.01-.02.01-.03-.01 0-.01.01-.01.03zm-8.67.48c0 .01 0 .03.01.04h-.01v-.04zm-.43 0s0-.01 0 0c0-.01 0-.01 0 0 .01-.01 0 0 0 0zM40 41.78c0 .03 0 .08-.01.09v-.09H40zm-6.54.07l.01-.03c0 .01-.01.02-.01.03zm-1.28.82h-.01.01zm-1.5-1.03v-.01c.01.01.01.01 0 .01zm-.08.25c.01.02.02.03.03.05-.02-.02-.02-.04-.03-.05zm-3.11 6.8c0 .01 0 .01 0 0-.01.01-.01 0 0 0v-.01.01zm-1.41 8.59zm3.38 5.71s0-.01.01-.01v.01h-.01zm2.43-.55c0 .02-.02.04 0 .06a.064.064 0 0 1 0-.06zm.44-.31h.01v.03c0-.02 0-.03-.01-.03zm3.1-.02v.08c-.01-.07-.02-.12-.03-.17 0 .03.01.06.03.09zm.82-.85c0-.02.01-.04.03-.04-.01.01-.02.03-.03.04 0 .01 0 0 0 0zm5.64-.02zm.33 1.43s.01 0 0 0c.01 0 .01 0 0 0 .01 0 .01 0 0 0zm1.07-2.49c0 .01.01.01.01.02 0-.01-.01-.01-.01-.02zm3.39-.23V60c0-.01-.01-.02-.01-.02 0-.01 0-.02.01-.03zm4.4.87v-.07h.01c0 .02-.01.04-.01.07zm1.25.67zm.98.17s0-.01 0 0zm.17-.65c0 .01-.01.02 0 0zm.95.58zm1.03.02c-.01 0 0 0 0 0zm1.38-1.2zm4.15.77s0 .01 0 0c0 .01 0 0 0 0zm1.26.05v.07c.01-.02 0-.05 0-.07zm.1.16v-.02c0 .01.01.01.01.01l-.01.01zm.5-3.98c-.01.03 0 .06 0 .09a.139.139 0 0 1 0-.09zm3.16-14.92s0 .01 0 0zm-.3-4.81zm-1.37 1.18l-.01.01c0-.01 0-.02.01-.02v.01zm-4.33 1.98c.02-.02.04-.02.06-.03-.03.03-.05.05-.06.03zm-3.21-.23v-.01.01zm-7.05 1.87c0-.01-.01-.01-.01-.02v-.01c.01 0 .01.01.01.01v.02zm-.02-.04s.01.01 0 0c0 .01.01.01.01.02v.01c-.01-.01-.01-.03-.01-.03zm-.41-.54v-.01.01zm-6.66.64c0-.01 0-.01-.01-.02.01.01.01.02.01.02zm-3.02-.4zm-.2.15v.02h-.01c.01-.01.01-.01.01-.02zm-1.74-.25zm-1.44-.83zm-2.79.61v-.01.01zm-1.76-1.18c0-.01.01-.01.01-.02v.02c0-.01-.01 0-.01 0zm-1.12 1.11v-.01.01zm-.51-.76s0 .01 0 0 0-.01 0 0zm-1.65 1.22c-.01 0-.01.01 0 0-.01.01-.01 0 0 0-.01 0-.01 0 0 0zm-1.32 3.69zm.13-.29c.01.01.02.02.03.04v.02c-.02-.03-.02-.05-.03-.06zm.12 3.79c0 .01 0 .01 0 0zm-1.02 4.89h-.03c.01 0 .02 0 .03-.01v.01zm-.27 2.99s.01 0 0 0c.01 0 .01.01 0 0 .01.01 0 0 0 0zm4.65 3.83s0-.01 0 0c0-.01 0-.01 0 0 0-.01 0 0 0 0zm5.75.14l-.01-.01c.01 0 .01 0 .01.01zm.35-.27v.01c0-.01-.01-.02-.01-.03l.01-.01v.03c0-.01 0-.01 0 0zm1.12.03c.01 0 .01 0 0 0 .01.01 0 .01 0 0 0 .01 0 0 0 0zm1.4.61c-.01 0-.01 0 0 0-.01 0-.01 0 0 0zm1.92-.4zm4.73.22zm2.02-.64zm1.29-.21s0-.01 0 0c-.01-.01-.01-.02-.01-.02.01.01.01.02.01.02zm.95.49zm1.25.57c0-.01 0-.01-.01-.02h.01v.02zm.07-.67s0-.01 0 0c.01-.01.01-.01 0 0 .01-.01.01 0 0 0zm.12.69v-.02.02zm2.87.32zm5.01-2.07zm1.27 1.39zm4.21-7.72c0-.01 0-.02-.01-.03v-.01c0 .02.01.03.01.04zm.19-2.73s0 .01.01.01l-.01-.01zm.98-7.91v-.07.07zm.04-.7zm-.35-1.09l.01-.01c-.01 0-.01.01-.01.01zm-1.86-2.24c0-.01 0-.01 0 0 0-.01 0-.01 0 0 0-.01 0-.01 0 0zm-6.26 1.53c0 .03 0 .05-.01.08.01-.03.01-.05.01-.08zm-1.78.38v-.01.01zm0-.01s0-.01 0 0c0-.01 0-.01 0 0 0-.01 0-.01 0 0zm-4.6.24v-.03.03zm-13.65.65v-.02.02c0-.01 0 0 0 0zm-9.23.16zm-.92 2.49v-.02l.02.02h-.02zm-.77 7.08s0 .01 0 0c.01.01.01.01 0 0 0 .01 0 .01 0 0 0 0 0 .01 0 0zm2.5 12.21c0-.01.01-.01.01-.01v.01h-.01zm2.75-1.35zm13.07-2.32s.01 0 0 0c.01.01.01.01 0 0 0 .01 0 0 0 0zm.48 1.38zm2.06.07zm.29.11c0 .01 0 .01 0 0v.01c-.01 0 0 0 0-.01zm2.16-.34v.05c-.01-.01-.01-.03 0-.05-.01.01-.01.01 0 0zm2.48.25zm.18.19c.01-.01.01-.01 0 0 .01-.01.01-.01 0 0 .01-.01.01-.01 0 0zm4.32.56h.01v.01c.01-.01.01-.03.01-.04-.01.01-.01.02-.01.04-.01 0-.01-.01-.01-.01zm3.62-.9c0 .02-.01.03-.01.05.01-.02.01-.04.01-.05zm.12.32zm.98-.34c0-.01.01-.02.01-.03v.02l-.01.01zm.63-1.97c0-.03 0-.04.01-.06 0 .02-.01.04-.01.06zm1.25-2.12s0 .01 0 0c-.01 0-.02 0-.03-.01.01.01.02.01.03.01zm1.06-9.63l-.02.04v-.01s.01-.02.02-.03zm.46-2.95c0-.02-.01-.04-.01-.07 0 .02 0 .05.01.07zm-.17-5.78c0 .01 0 .01 0 0zm-2.32.7v.01c0-.01-.01-.01-.01-.02 0 .01 0 .01.01.01zm-1.35.63zm-2.6.23zm-.57-.13c0 .01-.01.02-.01.03v-.02c0-.01 0-.01.01-.01zm-1.92.73s0-.01 0 0c0-.01 0 0 0 0zm0 0c0-.01 0-.01 0 0v-.02.02zm-.41-1.41zm-3.32 2.43s-.01 0 0 0c-.01-.01 0-.01 0 0 0-.01 0 0 0 0zm-.6-.86zm-2 .01c0 .01 0 .01-.01.01v-.01h.01zm-5.02-.43c0 .01-.01.03 0 .04h-.01s.01-.02.01-.04zm-4.12.49s0-.01 0 0c0-.01 0 0 0 0zm-.52-.43s0-.01 0 0zm-6.24-.2c0 .01 0 .01 0 0 0 .01 0 .01 0 0 0 .01 0 .01 0 0zm-3.85.15v-.03c.01.01.01.02.02.03h-.02zm-3.28 4.01v.01h-.01c.01 0 .01-.01.01-.01zm-.12.56s0-.02-.01-.02c0 0 .01-.01.01-.03 0 .02-.01.04 0 .05zm1.5 15.43zm3.33 2.11c0-.01 0 0 0 0-.01-.01-.01-.01 0-.01v.01zm.51-.3zm4.91-.55c-.01 0 0 0 0 0zm.33.05zm1.66.53s-.01 0 0 0c-.01-.01 0 0 0 0zm1.07-.45c0 .01 0 .01 0 0 0 .01-.01.02-.01.02s.01-.01.01-.02zm1.23-.28c.01 0 0 .01 0 .01v-.01zm1.44.62s0-.01.01-.02v.01c-.01 0-.01.01-.01.01zm4.51-.34v-.03c.01.01.02.01.02 0 0 0 0 .01-.01.02 0 .01-.01.01-.01.01zm1.48-.51c0 .01 0 .01 0 0 0 .01 0 0 0 0zm1.08-.06zm.89-.24v-.01.01zm.4.74v.02c.01 0 0-.01 0-.02zm.65-.27zm.13.5v-.02.02c0 .01-.01.02-.01.02s0-.01.01-.02c-.01 0 0 0 0 0zm.05.18l-.01.03c0-.01-.01-.01-.01-.02 0 0 .01 0 .02-.01zm.57-.81zm.88 1.08c0-.01-.01-.01-.01-.01s.01.01.01 0c.01 0 0 0 0 .01zm.25-.22c0 .01.01.02.01.03h-.01s0-.01-.01-.01c0-.01 0-.01.01-.02zm2.25-.01s0 .01 0 0c0 .01 0 .01 0 0 0 .01 0 .01 0 0 0 .01 0 0 0 0zm3.25-2.01v.01c-.01 0-.01 0 0-.01-.01.01-.01 0 0 0zm2.59.97zm1.68-3.82c0 .01.01.01.01.02 0-.01 0-.01-.01-.02zm2.09-6.4zm-.39-1.11zm-.03-.62c0-.01 0-.01 0 0zm-.08-3.9c-.01 0-.01 0 0 0-.01-.01 0-.01 0-.02-.01.01-.01.02 0 .02zm.29-.39c.01.01.01.02.02.02h-.02v-.02zm1.13-2.1s-.01.01-.01.02c0-.02.01-.03.01-.02zm-2.54-4.8c.01.01.02.02.02.05h-.02v-.05zm-6.17 1.91zm-1.98-.43c0-.01-.01-.01-.01-.01l.01-.01v.02zm-.84.24c0-.01 0-.01 0 0 0-.01 0-.01 0 0zm-.74.33s-.01 0 0 0c-.01.01-.01.01 0 0-.01 0 0 0 0 0zm-.03-.15zm-4.15.93l-.01-.01h-.01s.01-.01.01-.02v.01c.01.01.01.01.01.02zm-.57-.79c0-.03.01-.05.01-.08 0 .03-.01.05-.01.08zm-3.81 1.57zm-4.14-.3c0 .01 0 .01 0 0 0 .01 0 0 0 0zm-.39-.12zm-7.09-.8zm-3.76.03c.01 0 .01 0 0 0 .01 0 .01 0 0 0 .01 0 0 0 0 0zm-.6.62v-.02.02zm-.7-1.05l-.01.01c0-.01.01-.01.01-.01zm-.21.56s0 .01 0 0c-.01.01-.01.01 0 0-.01 0 0 0 0 0zm2.56 22.37c0-.01 0-.01 0 0v-.02.02zm7.09-.62zm1.61.06l.01.01c0 .01-.01.02-.01.02v-.03zm.27-.56zm4.36-1.17s0-.01.01-.01l-.01.01zm.09-.5zm2.16 2.31s0 .01-.01.01l.01-.01zm2.47-.71zm4.5.89s.01 0 0 0zm.3-.05zm1.35.42zm7.64-3.66c.01.04.01.09.01.14-.02-.03-.02-.08-.01-.14zm1.34-3.65c0 .07-.01.14-.01.2.02-.06.02-.13.01-.2zm2.05-15.19zm-6.14-.38c0-.01 0-.01 0 0 0-.01 0-.01 0 0 0-.01 0 0 0 0zm-.49-1v-.01s.01 0 .01-.01c0 .01-.01.02-.01.02zm-3.56 1.01v-.08c-.01.03-.01.06 0 .08zm-2.3-.16c0 .01 0 .01 0 0 0 .01 0 .01 0 0 0 .01 0 .01 0 0zm-11.49.55c-.01 0-.01 0 0 0-.01-.01-.01-.02-.02-.03 0 .01.01.02.02.03v-.07c-.01.03-.01.05 0 .07zm-3.41-1.22zm-.38.57c0 .04-.01.08-.02.12.01-.04.03-.07.02-.12zm-.95.51c.01.01.01.01 0 0v.04l-.01-.01c.01 0 .01-.01.01-.03zm-9.63 20.7zm2.97 1.73s.01 0 0 0zm2.43-1.01s0 .01 0 0c-.01 0 0 0 0 0zm2.78 3.18c-.01 0-.01 0 0 0 0-.02 0-.03.01-.05-.01.01-.01.03-.01.05zm1.87-2.43zm2.81-.75s.01.01 0 .02v-.02zm1.26 1.58v.01s-.01 0 0-.01c0 0 0 .01 0 0zm4-1.17s0 .01.01.01c-.01 0-.01 0-.01-.01zm2.57-.6zm3.97.85zm4.01-.12v.01l-.01.01c0-.01.01-.01.01-.02zm.36.79zm1.25-1.01c-.01.04-.01.07-.01.1-.01-.01-.01-.05.01-.1zm.32.58zm4.42-3.09zm-.26-21.88v.01c-.01-.01-.01-.02-.02-.03 0 .01.01 0 .02.02zm-4.16 1.7c0-.01 0-.01 0 0 0-.01 0-.01 0 0 0-.01 0 0 0 0zm1.37-1.76c.01.02.01.03.02.05 0-.02-.01-.04-.02-.05zm-6.98 2.35zm-.01 0zm-6.08.25c-.01.03-.02.06-.02.09.01-.03.02-.06.02-.09zm-1.15.02c-.01.03-.02.07 0 .1a.17.17 0 0 1 0-.1c-.01 0-.01 0 0 0zm-.22.23zm-9.25-.63v.02l.01-.01c0 .01 0 .02-.01.03 0-.01 0-.01-.01-.02 0-.01-.01-.01-.01-.02h.02zm-1.83.67v.05h-.01c.01-.01.01-.03.01-.05zm-1.18-.92zm-3.28-.9v-.01c0 .01.01.01.01.01h-.01c.01 0 0 0 0 0zm-2.19 2.36c.01.01.01.01 0 0zm-.62 2.1zm-1.68 15.73s-.01 0 0 0c0 0 0-.01 0 0 0-.01 0 0 0 0zm6.77 5.39s0-.01 0 0c.01 0 0 0 0 0 0 .01-.01.02-.01.03 0-.01 0-.02.01-.03zm1.64-1.93v-.02h.01c-.01 0-.01.01-.01.02 0-.01 0-.01 0 0zm2.57.52zm5.01.28v.01s-.01-.01 0-.01c-.01 0 0 0 0 0zm.01.08c0 .01 0 0 0 0 0 .01 0 .01 0 0 0 .01 0 .01 0 0zM45.13 62c.01 0 .01 0 0 0v.01c0-.01.01-.01 0-.01zm1.28 1.25v-.07l.01-.01c-.01.03-.01.05-.01.08zm1.08-.36zm4.16-.37zm2.04 1.51c0-.01 0 0 0 0zm2.73-1.05zm.82.47c0 .01 0 0 0 0zm3.63-.56zm.23-.77s0-.01 0 0c0-.01 0-.01 0 0 .01.02.02.04.03.05-.02-.02-.02-.04-.03-.05zm.4.88l.01.01c-.01 0-.01 0-.01-.01zm1.23-3.78zm2.34-1.43zm.67-5.81v-.01.01zm.81-8.79c.01-.02.02-.03.03-.04 0 .02-.01.04-.03.04.01.01 0 .01 0 0zm-6.01-3.54zm-.68-1.23c0 .01 0 .01 0 0 0 .01 0 .01 0 0 0 .01 0 0 0 0zm-.25 1.05h.03c.01.02.02.05.04.07 0 .02 0 .03-.01.05-.04.11-.1.22-.08.37-.04.04-.06.1-.08.16-.01-.07-.03-.14-.09-.18-.01.01-.02.03-.02.05v-.01c.01-.01.01-.02.01-.03.08-.1.09-.24.06-.39l-.02-.04.01-.05c.02-.03.03-.08.04-.12.04.08.07.12.11.12zm-5.72.56c0 .03 0 .05-.01.08v.01-.01c.01-.02.01-.05.01-.08zm-4.52-.57zm-3.75 1.04v.04c-.01 0 0-.04 0-.04zm-9.19-1.01zm-6.66.92s0-.01 0 0c0-.01 0-.01 0 0 0-.01 0 0 0 0zm2.41 23.21zm.14 1.39c-.01-.01-.01-.01 0 0zm4.36-1.68v-.02c0 .01 0 .02.01.03l-.01-.01zm1.25-.59v-.02c.01 0 .02-.01.02-.02v.02c-.01.02-.01.02-.02.02zm.07.69zm6.73-2.2v-.01.01c.01 0 .01-.01.01-.01-.01 0-.01.01-.01.01zm.41.44l.01.01h-.02c0-.01.01-.01.01-.01zm-.26.57v.02-.02zm.09.2zm3.3.62s-.01 0 0 0c-.01 0 0 0 0 0zm1.9-.3c0 .01 0 .01 0 0zm1.82 1.04c0 .02.01.04.01.06.01-.04 0-.05-.01-.06zm.8.55h-.02v-.01s.01 0 .02.01zm2.08-.22c-.01.02-.01.04-.02.05.02-.01.02-.03.02-.05zm.8-.73c.01 0 .01 0 0 0 .01 0 0 0 0 0zm1.71.03c.01.01.01.03.02.04-.01-.02-.02-.03-.02-.04zm1.39.53c0-.02.01-.04.01-.06v.06h-.01zm.45-1.32v-.02h.01c0 .01-.01.01-.01.02zm4.51-2.36s0 .01 0 0c-.01 0-.01 0 0 0-.01 0 0 0 0 0zm2.54-9.72s0 .01 0 0c0 .01-.01.01 0 0-.01.01-.01 0 0 0zm-.7-1.85zm-.3-1.07c-.01 0-.01 0 0 0-.01 0-.01 0 0 0zm-38.73-5.72c0-.16-.01-.31.07-.44.01-.02-.01-.1-.04-.09-.06.03-.11.08-.17.13-.02.02-.03.08-.05.11-.01.13.07.39.12.37.03.01.07-.05.07-.08z"/><path class="st1" d="M41.31 38.21c-.01.19.01.34.1.4.05.03.1.07.16.1s.11-.03.09-.16c-.01-.16 0-.31 0-.47 0-.14-.02-.21-.08-.26-.09-.09-.15.02-.21.16-.1.05-.1.05-.06.23zm-14.06 2.75c.01 0 .03-.03.04-.06.02-.15.05-.31.06-.47a.128.128 0 0 0-.06-.13c-.01 0-.02 0-.02.01-.04.08-.1.5-.08.59.01.04.04.06.06.06zm12.62-2.99c.04-.04.07-.11.09-.19.05-.21.1-.43.12-.66v-.21c0-.02-.02-.05-.03-.05-.03 0-.05.04-.05.1-.01.08.01.13.03.17-.04.27-.13.47-.23.66-.02.03-.03.11-.02.14.02.06.05.07.09.04zm5.71.32c.03-.04.05-.07.09-.1.07-.06.08-.11.04-.23-.02-.07-.04-.13-.07-.19-.08.1-.12.23-.13.41 0 .1.03.17.07.11zm-19.41 4.32c.01-.05.03-.1.03-.15 0-.05 0-.11-.01-.14-.01-.04-.04-.04-.06-.01-.04.07-.09.13-.13.2-.01.02-.01.06-.02.09 0 .01.01.03.01.04.06.15.14.13.18-.03zm.68-3.13c.04-.01.08-.07.1-.16a.351.351 0 0 0-.05-.26c-.05-.08-.07.02-.09.09-.03.07-.06.13-.1.21.05.08.09.13.14.12zM25.27 50.6c-.03-.09-.06-.17-.09-.26.07-.19.06-.19-.05-.21-.02.08-.03.15 0 .21-.04.21-.12-.03-.17.11.08.21.16.39.31.15zm21.46-11.18c.02-.02.04-.07.04-.13-.01-.1-.02-.2-.04-.29-.01-.06-.05-.08-.08-.03-.02.02-.03.08-.04.11 0 .14.02.25.06.33.01.02.04.02.06.01zm3.94-1.37c.02-.05.02-.11-.02-.1-.08.03-.06-.07-.05-.18 0-.03 0-.06-.01-.22-.06.25-.1.39-.13.54-.01.03.02.1.03.11.07.03.13-.01.18-.15zm15.79 12.82c-.04-.01-.05.07-.07.13-.06.19.06.27.03.45.01 0 .01 0 .02.01.04-.04.08-.11.08-.2 0-.1-.01-.2-.02-.29-.01-.04-.02-.09-.04-.1zm-39 15.16a.19.19 0 0 0-.03.08c0 .16.02.3.1.34.01.01.03 0 .05-.01.02-.02.05-.09.04-.11a.518.518 0 0 1-.11-.31c-.01 0-.04 0-.05.01zm9.84-27.74c0 .11.02.19.07.22.04.02.06.01.07-.09 0-.05.01-.1.01-.16.02-.04.03-.08.05-.12 0-.09 0-.18-.06-.16-.06.02-.11.06-.17.1-.05.04-.03.1-.01.15.02.04.03.05.04.06zM27.22 62.91c-.02.18.05.1.09.11.06.01.09.18.16.14 0-.18-.09-.22-.1-.37-.02 0-.03.01-.05.01a.14.14 0 0 0-.1.11zm.16-.12zm17.81-24.02c.03.01.04-.02.06-.07.04-.17.05-.34 0-.54-.04.19-.08.33-.1.48-.03.08.01.11.04.13zm21.97.51c-.01.02-.03.06-.03.08 0 .03.01.06.02.07.04.04.09.02.14-.01.05-.03.07-.17.03-.25-.01-.03-.04-.03-.06-.04-.01-.05-.01-.06-.02-.02l.02.02c-.02.08-.06.11-.1.15zm-28.51-1.63c.04.06.05-.01.07-.07a.31.31 0 0 0 .01-.19c-.02-.04-.04-.02-.06 0-.04.04-.08.07-.11.11-.01.01-.01.06-.02.09.01.02.02.05.03.05.02 0 .05-.04.08.01zm9.24-1.11c.05-.1.12-.16.13-.32 0-.03-.01-.06-.02-.08 0-.01-.01-.01-.02-.01-.05.08-.11.16-.14.3 0 .02 0 .07.01.09.01.01.04.03.04.02zm.85 1.49c.01-.07 0-.14-.03-.18-.03-.05-.06-.02-.08.04-.03.08-.06.17-.12.33.09-.05.13-.07.18-.09.02-.01.04-.04.05-.1zm5.43.8c.05-.01.1-.13.1-.22 0-.1-.04-.15-.11-.12-.02.01-.05.04-.05.1.03.09 0 .23.06.24zm.99 25.8c-.01.03 0 .07.01.09.06.09.13.17.23.06-.06-.11-.12-.18-.2-.2-.01-.02-.03.02-.04.05zM65.47 47.1c-.01.01-.02.05-.02.08 0 .08.04.23.07.23.05 0 .06-.1.08-.18.02-.08 0-.14-.03-.16-.03-.01-.06.01-.1.03zm-39.48-2.42c-.01.07-.01.14.03.16.05 0 .12-.08.12-.14 0-.07-.06-.18-.1-.18-.04.01-.05.09-.05.16zm14.93-5.8c0-.07 0-.14-.01-.18 0-.11.04-.19.02-.27 0-.01-.01-.02-.02-.02s-.02.01-.02.02c-.05.17-.05.34-.02.5 0 .01.02.02.02.01.01-.02.03-.04.03-.06zm-12.63-.06c.03-.02.05-.05.05-.11 0-.08-.02-.12-.05-.15-.03-.03-.06-.03-.09.03-.01.02-.02.07-.02.09.02.11.06.16.11.14zm16.82-2.46c.01-.02.02-.06.03-.09a.694.694 0 0 0-.05-.31c-.01-.01-.02-.01-.02 0l-.04.08c.02.1.03.21.05.32-.01.01.02.01.03 0zM25.48 59.87a.2.2 0 0 0 .01-.21c-.01-.02-.02-.03-.04-.05-.03-.1-.06-.1-.1.02.02.07.03.15.05.22.02.06.05.07.08.02zm40.66-4.62s-.01.05-.02.08c.02.12.07.17.13.12.01-.01.02-.02.02-.04 0-.03.01-.07 0-.09-.04-.07-.09-.06-.13-.07zm-40.06-5.61c-.02.03-.04.09-.04.13 0 .13.04.2.12.26-.02-.15-.02-.25-.03-.34-.01-.05-.03-.09-.05-.05zm2.19-10.17c-.09.08-.14.13-.2.18-.01.01-.02.06-.02.09 0 .02.02.05.03.04.07-.04.13-.08.19-.31zm23.81-2.34c-.08.06-.13.09-.17.14-.01.01-.02.07-.02.08.01.04.03.08.05.08.06-.01.09-.11.14-.3zm1.53 1.53c-.01.08.03.17.05.15.03-.03.08-.2.07-.28 0-.02-.02-.04-.04-.04-.04.02-.07.09-.08.17zm-28.09 4.85c.01 0 .02-.01.02-.01.01.03.03.07.04.1v.1c0 .12-.02.29 0 .35.06.15.08.32.09.52.01.06.02.13.07.05.03-.05.06-.09.08-.15.06-.2.12-.29.22-.23.03.02.06-.08.05-.15l-.03-.24c.07-.11.07-.3.11-.44.03-.13.08-.24.08-.4-.07-.03-.13-.06-.2-.08-.02 0-.04.05-.06.08 0 .11-.01.21-.01.32-.02.04-.03.08-.05.12-.07.01-.13.02-.19.03-.02-.03-.03-.07-.05-.1-.02-.08-.05-.09-.09-.09 0-.11.03-.2.06-.3.02-.05.02-.11-.01-.11-.02 0-.05.02-.07.06-.04.11-.03.24-.03.36l-.05.05c-.06.09-.14.11-.18.29.08.16.13-.17.2-.13zm16.94 20.71zM26.82 42.8c.03-.08.03-.16.01-.24 0-.02-.02-.05-.03-.05-.02 0-.03.03-.03.07 0 .07-.01.13-.02.2.01.02.01.06.03.06.01 0 .03-.02.04-.04zm7.77 21.6v.01-.01zm-.16-.19c0 .12.05.09.08.12.03.02.05.05.08.07 0-.09-.01-.16-.05-.2-.05-.06-.11-.06-.11.01zM66.8 38.25c.02.06.05.09.08.04.02-.04.04-.12.05-.18 0-.01-.02-.03-.03-.05-.03.03-.06.07-.09.11-.02.01-.02.05-.01.08zm-14.19-.53c.01-.03.03-.05.03-.07 0-.08-.02-.12-.05-.14-.03-.03-.06-.01-.09.06-.01.02-.01.08 0 .08.04.03.08.05.11.07zm3.7.32c.01.05.03.05.05-.01.03-.08.03-.15 0-.21l-.04-.04c-.03-.02-.06-.06-.08.01-.02.07-.01.13.01.17.02.03.04.06.06.08zm9.81 15.94c-.01-.01-.03 0-.04 0-.01 0-.01.02-.02.04-.01.09.01.15.03.21.01.04.03.02.04-.03.02-.08.02-.16-.01-.22zm-5.37-14.03c-.02.05 0 .1.02.11.03.01.06.01.09.01 0-.08 0-.18-.05-.18-.01 0-.04.03-.06.06zm-8.11 23.72c-.01-.07-.01-.14-.02-.19-.02-.07-.04-.08-.08 0 0 .26 0 .26.1.19zm13.23-28.11c0-.03-.01-.08-.01-.08-.05-.01-.07.09-.08.17 0 .02.01.06.01.09.04-.02.07-.08.08-.18zm-11.34 3.05c.02-.02.04-.08.03-.12-.01-.03-.04-.04-.06-.04-.02 0-.04.04-.04.1.01.08.03.09.07.06zm-7.42.97c.01-.05.01-.1-.01-.13-.02-.02-.05 0-.06.05-.02.07-.01.13.02.16.02.01.04-.03.05-.08zm-1.42-.66c.02-.02.03-.09.03-.13 0-.05-.01-.09-.04-.08-.04.04-.05.09-.04.16.01.05.03.08.05.05zm-18.39.33c.02.03.05-.01.06-.07.01-.07.01-.14.02-.2-.04.02-.08.04-.09.15-.01.04 0 .11.01.12zm5.97-.69c.01-.02.01-.07 0-.09-.02-.08-.06-.06-.1-.03-.01 0-.01.02-.02.03.01.02.01.06.02.07.03.04.05.11.1.02zm4.76-1.21c.03-.13.03-.13-.05-.11a.5.5 0 0 1-.07.08c-.02.03-.04.07-.05.1.02.03.05.08.07.09.05 0 .08-.08.1-.16zm27.04 21.17v.04c.02.05.09.01.12-.07.01-.01.01-.03.01-.05-.01-.01-.01-.02-.02-.02-.04-.03-.1.02-.11.1zm-41.06-1.76c-.01.09 0 .15.02.14.02-.01.04-.06.05-.1.01-.05 0-.1-.03-.1s-.04.04-.04.06zm28.94-19.12c0-.05-.02-.09-.04-.08-.03.02-.04.07-.03.12 0 .05.02.08.04.08.03-.03.03-.08.03-.12zm-13.01 1.48s-.01.03-.01.04c0 .09.03.1.06.11.01.01.03-.01.04-.02 0 0 .01-.03 0-.04-.02-.08-.05-.11-.09-.09zM60.56 64c0 .02.01.04.02.06.01-.02.03-.03.03-.05 0-.02 0-.07-.01-.08-.02-.01-.04.02-.04.07zm-4.71.64c0 .02.01.04.02.06.01-.02.03-.03.03-.05 0-.02 0-.07-.01-.08-.02-.01-.04.01-.04.07zm-1.37-.03c-.01.01-.02.05-.03.08 0 .05 0 .1.03.1.03-.02.04-.06.04-.11.01-.05-.01-.09-.04-.07zM26.51 49c-.02-.01-.04.02-.04.08 0 .02.02.04.02.05.01-.02.03-.03.03-.05.01-.03 0-.07-.01-.08zm40.66-10.23c-.01.01-.01.06-.02.09.01.01.03.04.04.03.01-.01.01-.06.02-.09-.02-.01-.03-.04-.04-.03zM25.76 44.9c-.01.08.02.1.04.12.01-.02.02-.04.03-.05-.01-.03-.02-.07-.04-.09.01-.01-.02.01-.03.02zm34.36-8.32c.01-.03.01-.07.01-.1-.02 0-.03 0-.04-.01-.01.01-.01.02-.02.03-.03.06-.03.13 0 .16.02.02.04-.02.05-.08zm-10.58 1.69c-.01-.02-.01-.06-.02-.07-.01-.01-.03.02-.04.04-.01.05 0 .09.02.09s.03-.04.04-.06zm6.05-1.34c0-.02-.02-.04-.03-.04-.02 0-.05.02-.05.08 0 .05.02.08.04.07a.16.16 0 0 0 .04-.11zm10.87 16.86s.02-.02.02-.03c.01-.13-.03-.17-.07-.21 0 .11 0 .21.05.24zm-.05-.24zm-26.6-14.91c0-.02-.01-.04-.02-.06-.01.01-.03.02-.04.04 0 .02 0 .07.01.08.02.02.04-.01.05-.06zM24.65 60.61c.01.01.03.02.04.03.01-.03.02-.07.02-.09 0-.02-.02-.02-.04-.03 0 .03-.01.06-.02.09zm41.47-5.88c.01 0 .03-.02.04-.04.01-.02 0-.05-.01-.08-.01.02-.03.03-.04.05-.01.03-.01.07.01.07zm-.28-7.97zm-.06.18c.01-.01.03-.01.04-.03.01-.04.02-.1.02-.14l-.06.09v.08zM28.4 65.15c0 .02.01.05.03.05.01 0 .03-.03.03-.05.01-.03.01-.06.01-.09-.02.01-.03 0-.04.02-.02.01-.04.05-.03.07zm.06-.09zm32.01-28.53c-.01.11-.01.21-.02.32.08-.16.08-.16.02-.32zm-20.73 2.68c.01-.02 0-.06-.01-.09-.01.02-.03.03-.04.05-.02.03-.01.06.01.08.02-.01.04-.02.04-.04zm-4.36-.08c-.01-.02-.02-.03-.03-.04-.01.03-.02.07-.01.08 0 .02.02.02.03.03.02-.01.02-.04.01-.07zm15.89-2.59c.01-.02 0-.05 0-.08-.01.02-.03.03-.04.05-.01.03-.01.06.01.08.01-.02.03-.02.03-.05zM23.18 55.33c.02.08.05.09.09.08-.01-.1-.04-.1-.09-.08zm4.01 9.33v.03c0 .01.01.01.02 0 .02-.02.02-.05 0-.05 0 0-.01.02-.02.02zm1.64 1.28v.04c.01.02.02.01.02-.03 0-.01-.01-.02-.01-.03 0 0-.01.01-.01.02zm-3.48-4.36c0 .01.01.03.01.03.02 0 .03-.02.02-.05 0-.01-.01-.01-.02-.01 0 .01 0 .02-.01.03zm39.42-2.73c0 .01.01.01.02.02.01-.01.01-.02.02-.03 0-.01 0-.03-.01-.03-.02-.01-.03.01-.03.04zm-16.53 6.84c.01.01.02.02.04.03 0 0 .01-.03.02-.04 0-.01-.01-.04-.01-.03-.02 0-.04.02-.05.04zm10.14-1.35c.06-.08.06-.14.01-.2-.01.07-.01.14-.01.2zm5.45-4.98c0-.01 0-.03-.01-.04 0 0-.01.01-.02.01 0 .02-.01.04-.01.05.02.03.03.03.04-.02zM24.64 46.41c0-.04 0-.06-.02-.05 0 0-.01.03-.01.04 0 .01 0 .03.01.03 0 .01.01-.01.02-.02zm.47-1.04c0-.01-.01-.02-.01-.03l-.02.02v.04c.02.02.03.01.03-.03zm10.03 20.32v.04c.01 0 .01 0 .02-.01 0-.01.01-.03.01-.04-.01-.04-.02-.03-.03.01zm-9.51-20.64s.01-.02.01-.04c-.01 0-.01-.01-.02-.01 0 0-.01.02-.01.04.01.01.02.01.02.01zm2.33 17.77c-.02-.11-.06-.13-.11-.07-.03.04-.06.1-.05.17.02.14-.01.27-.03.41-.01.08.02.11.05.12.07.01.11-.06.1-.22 0-.1-.01-.2-.01-.3.02-.03.03-.07.05-.11zm38.82-12.18c0 .01.01.02.01.03 0-.01.01-.02.01-.03.01-.04 0-.06-.02-.04v.04zM34.59 64.5c0 .01.01.04.01.04.02-.01.03-.04.02-.07l-.03-.06v.09zm10.99-24.59c.01 0 .02 0 .04-.01 0-.02 0-.04-.01-.06-.01.01-.03.02-.04.04.01.01.01.03.01.03zm3.83-.81c-.01.02-.02.03-.03.05-.01.03-.01.06-.01.09.01-.02.03-.03.03-.05.02-.03.01-.06.01-.09zm-.03.14zm1.67-.39c.02-.02.02-.04 0-.06 0 0-.01 0-.02.01v.03l.02.02zm-.86 0l-.03-.03s-.01.02-.02.03c.01.01.01.03.01.03.02 0 .03-.02.04-.03zm-.2-.23v-.01zm-.03.14s.01-.03.01-.04c0-.03.01-.07.01-.1-.01.02-.03.04-.04.07 0 .03 0 .06.02.07zm-8.67 1.04c.01-.04 0-.07-.02-.05 0 0-.01.03-.01.04 0 .01 0 .03.01.04 0-.01.02-.02.02-.03zm8.94-2.03c0-.01-.01-.01-.02-.01-.01.01-.01.02-.02.03 0 .01.01.03.01.03.02 0 .03-.02.03-.05zm-4.55.65s-.01.01-.02.01c0 .01 0 .03.01.04 0 0 .01-.01.02-.01-.01-.01-.01-.03-.01-.04zm-5.27.72v-.04c-.01-.01-.02-.01-.02-.01-.02.03-.02.05 0 .06.01.01.02 0 .02-.01zm13.24-2.31c-.01.01-.01.03-.01.04 0 .01 0 .03.01.04.01-.02.01-.05 0-.08zm-4.71.7c.01-.04 0-.06-.02-.05 0 0-.01.03-.01.04 0 .01.01.03.01.03.01.01.02-.01.02-.02zm-6.2.46s-.01 0-.02.01v.03c.01 0 .01.01.02.01.02-.01.02-.04 0-.05zm6.12-1.07c0-.01.01-.03.01-.04 0-.05-.01-.05-.02 0v.04h.01zm-7.19.58c0-.01 0-.03-.01-.04-.01.01-.01.03-.02.04 0 .01.01.03.01.04.01-.01.02-.03.02-.04zm24.42 10.6h-.01zm.01.02l-.02-.02c.01.05.02.06.02.02zm.24-.37c0-.03-.01-.06-.01-.1-.01-.06 0-.16-.02-.18-.04-.03-.05.07-.06.13-.01.06-.02.1-.05.09-.06-.02-.08.04-.06.15.01.06.03.12.05.16.02.05.05.07.09.04.05-.03.06-.12.07-.21-.01-.02-.01-.05-.01-.08zm-41.88 5.43l.02.02c-.01-.05-.01-.06-.02-.02zM52.11 64.6v-.01zm-.02.04c.01-.01.01-.03.02-.04-.01 0-.01.01-.01.02-.01 0-.01.01-.01.02zm-9.61-.4l-.02-.02c.01.05.01.05.02.02zm-.02-.02zm-7.48.83l.01-.03h-.01zm1.94-.95l.01-.02-.02.01zm-5.99.46c-.02-.03-.03-.06-.05-.09v.11c.01-.02.03-.02.05-.02zm32.88-5.88c0-.01-.01-.03-.01-.03s-.01.02-.02.03c0 .01.01.03.01.03s.01-.02.02-.03zm2.03-.48c-.01-.02-.02-.06-.03-.06-.12.06-.24.14-.35.05-.01-.01-.03.03-.04.06-.01.03 0 .07 0 .1.02.1.07.1.12.11.08.01.16-.12.24-.13 0 .08 0 .17.01.25 0 .05.03.09.05.07.02-.02.04-.08.05-.12.03-.14-.02-.18-.06-.22.01-.05.01-.08.01-.11zm-40.77 4.19l.01-.03h-.01zm27.56-23.41c-.01-.01-.01-.02-.02-.04v.03c.01.01.02.01.02.01zm-.02-.04zm-9.04.35c0-.01.02-.02.01-.02 0 0-.01.01-.01.02zm0 0c0 .01.01.01-.01.02.01 0 .01-.01.01-.02zm-.99.18zm-.02-.02l.02.02c-.01-.05-.01-.06-.02-.02zm6.62-1.93h-.01v.03zm-4.46.32l.02.02-.01-.05zm-10.71 1.63l-.02-.02c0 .05.01.06.02.02zm-.02-.02zm10.2-1.64l.02.02c-.01-.04-.02-.05-.02-.02zm.02.02v.01-.01zm-6.64-.48l-.02-.01.01.04zm2.31-.69v.02l.01-.01zm-1.17.18h-.02l.01.04zm6.32 26.65c-.02.01-.03.02-.05.03-.01.01-.02.02-.02.03v.1c.04.13.1.18.18.15.03-.01.05-.05.05-.1s0-.1-.02-.13c-.03-.11-.09-.07-.14-.08zm-7.16-24.13c.04-.02.08-.05.09-.15.01-.11-.03-.14-.07-.15-.03-.01-.06 0-.09 0-.03.01-.05.01-.08.03-.02.01-.05.04-.05.1 0 .04.02.08.03.11.06.06.11.09.17.06zm-.38-.1c.01-.02.03-.03.04-.05.02-.03.01-.07-.01-.08-.01 0-.03.03-.04.04 0 .03 0 .06.01.09zM57.77 63.7h-.01zm0-.05v.05c.01 0 .02 0 .02-.01.04-.03.08-.07.06-.18 0-.03-.02-.06-.03-.05-.07.01-.05.12-.05.19zm.45.16a.59.59 0 0 0-.02.14c.02-.02.05-.03.06-.05.01-.01.02-.07.01-.08-.01-.06-.03-.06-.05-.01zm-.02.14zm.08-.47c0 .03 0 .07.01.08.01.01.03-.01.04-.03.02-.05.01-.09-.01-.1-.02.01-.03.04-.04.05zm-.83.2c-.01.02-.02.05-.03.08.01-.01.03-.01.04-.02.01 0 .02-.02.02-.03 0-.05-.01-.06-.03-.03zm-.04.1c0 .01-.02.02-.01.02s.01-.01.01-.02zm0 0c0-.01 0-.01.01-.02 0 0 0 .01-.01.02zm1.17-26.42c0-.09 0-.17-.04-.21 0 .06-.01.13 0 .19 0 .07.02.06.04.02zM31.5 65.28l.02-.02-.01-.02zm26.32-28.55c.01-.03.01-.07.01-.1-.02-.03-.03-.06-.05-.09-.01.05-.02.1-.03.14-.01.05-.01.11.01.13.03.01.05-.03.06-.08zm-.33.8c.02.07.05.04.08 0 .05-.07.06-.09.02-.18-.01-.02-.03-.03-.04-.05-.02 0-.03.01-.05.01-.03-.12-.09-.09-.14-.08-.03.01-.06.01-.1.02 0 .07-.01.14-.01.21.09-.02.18-.03.24.07zm8.42 9.02c.05-.02.12.01.14-.17.02-.16-.07-.09-.09-.17-.02-.06-.05-.08-.08-.04-.05.04-.11.07-.13.15-.05.14.02.2.05.29.02.05.03.11.05.16.03-.06.05-.13.06-.22zm-8.37-8.36c0 .05 0 .13.01.14.08.07.17.05.26-.02.06-.05.08-.19.11-.31-.02-.03-.03-.06-.05-.1-.03 0-.07.01-.1.01-.01-.05-.01-.06-.02-.02l.02.02c-.02.08-.04.17-.07.23-.04.08-.07-.01-.11-.01-.02 0-.05-.02-.05.06zm.61-.41c.05-.09.08-.34.04-.44-.05-.16-.09.06-.14.09-.03.02-.06.07-.08.16.04.07.09.14.13.2.01.02.04.01.05-.01zm1.24-1.09v-.1c-.04-.04-.09-.1-.14-.08l-.06.21h.1c.03 0 .07-.02.1-.03zM59 38.5a.31.31 0 0 0 .02-.08c0-.02-.02-.03-.03-.04-.02.02-.03.05-.02.08 0 .02.01.02.03.04zm.13-1.54c-.08.04-.08.04-.05.22.04-.05.05-.13.05-.22zm-.63 1.15c.1-.18.1-.18.15-.02 0 0-.01.01-.01.04 0 .02 0 .05.01.07.01 0 .03 0 .04-.01l.05-.05c.05-.05.07-.06.07.08 0 .15.04.16.09.06.08-.15.08-.27 0-.31a.481.481 0 0 1-.25-.31c-.03-.09-.14-.1-.18-.05-.03.04-.03.09-.03.14-.01.13-.07.28.01.37.02 0 .04 0 .05-.01zm.34-1c0-.01 0-.03-.01-.04 0-.01-.01 0-.01-.01 0 .02.01.04.02.05zm.13-.49c-.01.02-.01.03-.02.05l.02-.02v-.03zm-3.93 5.11zm4.17 18.78zm-7.15-17.35zm11.15-1.48zM60.86 43zm-3.72 15.4zm.05 0zm-27.91-3.1zm28.36.27zM29.9 53.08zm23.95-.4z"/><path d="M48 91a.99.99 0 0 1-.71-.29l-8.48-8.49a.996.996 0 0 1 0-1.41c.38-.38 1.04-.38 1.41 0L48 88.59 87.09 49.5 61.05 23.46a.976.976 0 0 1 0-1.41c.37-.38 1.03-.38 1.41-.01l26.75 26.75c.19.19.29.45.29.71 0 .27-.1.52-.29.71L52.3 87.11l-.03.03-3.56 3.57A.99.99 0 0 1 48 91zM32.44 75.44c-.26 0-.51-.1-.7-.29L6.79 50.21c-.39-.39-.39-1.03 0-1.42l40.5-40.5c.38-.38 1.04-.38 1.42 0l6.68 6.68c.19.19.29.44.29.71s-.1.52-.29.71c-.38.38-1.04.37-1.42 0L48 10.41l-1.09 1.09s0 .01-.01.01c-.01.01-.02.03-.04.04L8.91 49.5l24.24 24.24s.01 0 .01.01c.18.18.28.43.28.69a.99.99 0 0 1-1 1z"/><circle cx="58" cy="19.24" r="1.11"/><circle cx="36" cy="78.24" r="1.11"/><path class="st2" d="M62.95 61.18h-29.9c-2.24 0-4.05-1.81-4.05-4.05v-16.9c0-2.24 1.81-4.05 4.05-4.05h29.9c2.24 0 4.05 1.81 4.05 4.05v16.9c0 2.24-1.81 4.05-4.05 4.05z"/><path d="M62.95 62.18h-29.9c-2.78 0-5.05-2.26-5.05-5.05v-16.9c0-2.78 2.26-5.05 5.05-5.05h29.9c2.78 0 5.05 2.26 5.05 5.05v16.9c0 2.78-2.26 5.05-5.05 5.05zm-29.9-25c-1.68 0-3.05 1.37-3.05 3.05v16.9c0 1.68 1.37 3.05 3.05 3.05h29.9c1.68 0 3.05-1.37 3.05-3.05v-16.9c0-1.68-1.37-3.05-3.05-3.05h-29.9z"/><path d="M47.13 52.71l.56 1.53 5.16 1.29.25-2.62zm1.97-10.89l-8.36 3.94 1.29 6.02h1.77l-.29-4.32.23-.07.98 4.39h1.83l-.05-5.25.26-.09.9 5.34h1.92l.44-6.35.2-.07.48 6.42h2.5l.82-8.79z"/></svg>